<svg xmlns="http://www.w3.org/2000/svg" viewBox="0 0 175 39">
  <defs>
    <radialGradient id="a" cx="-4.619%" cy="6.646%" r="101.342%" fx="-4.619%" fy="6.646%" gradientTransform="matrix(.8299 .53351 -.5579 .79363 .03 .038)">
      <stop offset="0%" stop-color="#00FFB4" />
      <stop offset="100%" stop-color="#39b0deff" />
    </radialGradient>
  </defs>
  <svg  width="109.306" height="38.578" viewBox="0 0 109.306 38.578" xmlns="http://www.w3.org/2000/svg"><g id="svgGroup" stroke-linecap="round" fill-rule="evenodd" font-size="9pt" stroke="url(#a)" stroke-width="0.25mm" fill="#000"><path fill="url(#a)" d="M 5.146 31.248 Q 4.39 31.038 3.928 30.891 L 3.466 30.744 Q 3.55 30.534 3.403 30.366 Q 3.256 30.198 2.794 30.156 Q 2.164 29.778 1.639 29.211 Q 1.114 28.644 0.778 28.098 Q 0.442 27.552 0.274 27.174 Q -0.02 26.544 0.001 26.397 Q 0.022 26.25 0.484 26.04 Q 0.946 25.704 1.177 25.83 Q 1.408 25.956 1.744 26.67 Q 2.29 27.636 3.613 28.14 Q 4.936 28.644 6.595 28.581 Q 8.254 28.518 9.766 27.846 Q 11.32 27.216 11.719 26.523 Q 12.118 25.83 11.404 24.738 Q 11.278 24.402 11.11 24.192 Q 10.942 23.982 10.585 23.646 Q 10.228 23.31 9.43 22.554 Q 8.8 22.26 8.275 22.008 Q 7.75 21.756 7.162 21.462 Q 6.49 21.126 5.545 20.475 Q 4.6 19.824 3.76 19.026 Q 2.92 18.228 2.542 17.556 Q 1.87 16.926 1.534 15.813 Q 1.198 14.7 1.282 13.44 Q 1.366 12.18 1.912 11.172 Q 2.164 10.584 2.773 9.723 Q 3.382 8.862 4.138 7.98 Q 4.894 7.098 5.608 6.384 Q 6.322 5.67 6.784 5.376 Q 7.12 5.04 7.498 4.683 L 7.876 4.326 Q 7.918 4.116 8.023 4.116 L 8.128 4.116 Q 8.338 3.99 9.052 3.696 Q 9.766 3.402 10.606 2.604 Q 13.42 1.26 15.184 0.63 Q 16.948 0 18.082 0 Q 19.132 0.042 19.993 0.483 Q 20.854 0.924 21.421 1.638 Q 21.988 2.352 22.114 3.36 Q 22.408 4.368 21.946 5.691 Q 21.484 7.014 20.581 8.169 Q 19.678 9.324 18.628 9.912 Q 17.452 10.416 17.053 10.353 Q 16.654 10.29 16.696 9.492 Q 16.696 9.156 16.927 8.694 Q 17.158 8.232 18.208 7.056 Q 19.552 5.082 19.846 3.906 Q 20.14 2.73 19.3 2.604 Q 19.048 2.52 18.397 2.604 Q 17.746 2.688 16.969 2.835 Q 16.192 2.982 15.646 3.129 Q 15.1 3.276 15.1 3.36 L 15.1 3.486 Q 15.1 3.612 14.932 3.57 Q 14.848 3.57 14.218 3.906 Q 13.588 4.242 12.706 4.788 L 10.942 5.88 Q 10.06 6.426 9.451 6.825 Q 8.842 7.224 8.8 7.308 Q 8.716 7.77 7.834 8.148 Q 6.994 8.652 6.301 9.618 Q 5.608 10.584 4.768 12.012 Q 4.054 12.978 3.76 14.091 Q 3.466 15.204 3.76 15.876 Q 3.97 16.548 5.062 17.598 Q 6.154 18.648 7.792 19.614 Q 9.22 20.412 10.354 21.189 Q 11.488 21.966 12.223 22.68 Q 12.958 23.394 13.21 23.94 Q 13.714 24.654 13.945 25.389 Q 14.176 26.124 14.197 26.796 Q 14.218 27.468 14.05 28.014 Q 13.756 28.686 13.021 29.4 Q 12.286 30.114 11.782 30.072 Q 11.32 30.198 11.089 30.366 Q 10.858 30.534 10.564 30.66 Q 10.27 30.828 9.325 30.996 Q 8.38 31.164 7.246 31.227 Q 6.112 31.29 5.146 31.248 Z M 36.436 26.754 L 35.974 26.376 Q 35.764 26.166 35.722 25.935 Q 35.68 25.704 35.764 25.41 L 36.73 22.638 Q 37.402 21.126 37.654 20.433 Q 37.906 19.74 37.906 19.551 Q 37.906 19.362 37.78 19.404 Q 37.444 19.446 36.772 19.803 Q 36.1 20.16 35.89 20.496 Q 35.722 20.496 35.386 20.874 Q 35.05 21.252 34.546 21.588 Q 34.252 22.092 33.391 22.89 Q 32.53 23.688 31.69 24.528 Q 31.144 24.99 30.619 25.662 Q 30.094 26.334 29.737 26.838 Q 29.38 27.342 29.254 27.342 Q 28.708 27.342 28.267 27.048 Q 27.826 26.754 27.616 26.082 Q 27.28 25.368 27.616 24.087 Q 27.952 22.806 28.372 20.748 Q 28.54 20.118 28.582 19.824 Q 28.624 19.53 28.729 19.215 Q 28.834 18.9 29.107 18.228 Q 29.38 17.556 29.968 16.212 Q 30.262 15.414 30.325 15.015 Q 30.388 14.616 30.388 14.448 Q 30.388 14.028 30.619 13.734 Q 30.85 13.44 31.186 13.314 Q 31.522 13.188 31.816 13.272 Q 32.278 13.356 32.635 13.734 Q 32.992 14.112 33.034 14.784 Q 33.076 15.288 32.95 15.687 Q 32.824 16.086 32.698 16.422 L 32.236 17.556 Q 32.026 18.018 31.69 18.9 Q 31.354 19.782 31.102 20.517 Q 30.85 21.252 30.85 21.378 Q 30.892 21.504 31.144 21.315 Q 31.396 21.126 31.795 20.769 Q 32.194 20.412 32.614 20.076 Q 33.496 19.236 34.609 18.459 Q 35.722 17.682 36.73 17.136 Q 37.738 16.59 38.284 16.422 Q 38.998 16.422 39.271 16.674 Q 39.544 16.926 40.216 17.598 Q 40.51 17.892 40.552 18.354 Q 40.594 18.816 40.51 19.236 Q 40.468 19.404 40.258 20.055 Q 40.048 20.706 39.859 21.294 L 39.67 21.882 L 40.153 21.462 Q 40.636 21.042 41.224 20.559 Q 41.812 20.076 42.106 19.824 Q 43.744 18.564 44.962 18.228 Q 46.18 17.892 46.936 19.11 Q 47.44 19.572 47.461 20.118 Q 47.482 20.664 47.482 22.008 Q 47.524 22.554 47.566 23.31 Q 47.608 24.066 47.671 24.675 Q 47.734 25.284 47.818 25.41 Q 47.944 25.578 48.301 25.683 Q 48.658 25.788 49.246 25.872 Q 49.876 25.956 50.002 26.418 Q 50.128 26.88 49.456 27.3 Q 48.826 27.678 48.07 27.636 Q 47.314 27.594 46.726 27.384 Q 46.516 27.3 46.096 26.964 Q 45.676 26.628 45.382 25.809 Q 45.088 24.99 45.088 23.52 Q 45.13 22.26 45.151 21.546 Q 45.172 20.832 44.836 20.832 Q 44.5 20.832 43.555 21.483 Q 42.61 22.134 41.392 23.226 Q 40.174 24.318 38.914 25.662 Q 38.494 26.124 38.095 26.523 Q 37.696 26.922 37.318 27.027 Q 36.94 27.132 36.436 26.754 Z M 89.86 24.864 L 89.944 23.982 L 88.306 25.284 Q 86.878 26.544 85.555 27.09 Q 84.232 27.636 83.224 27.636 Q 82.762 27.552 82.3 27.3 Q 81.838 27.048 81.481 26.67 Q 81.124 26.292 80.914 25.872 Q 80.662 25.284 80.767 24.276 Q 80.872 23.268 81.271 22.071 Q 81.67 20.874 82.279 19.719 Q 82.888 18.564 83.686 17.682 Q 85.072 15.582 86.668 15.12 Q 88.264 14.658 89.818 15.582 Q 90.91 16.044 91.183 16.002 Q 91.456 15.96 91.666 15.036 Q 91.834 14.364 92.002 13.671 Q 92.17 12.978 92.548 11.802 Q 93.598 8.61 94.375 6.804 Q 95.152 4.998 95.782 3.654 Q 96.244 2.688 96.559 2.457 Q 96.874 2.226 97.21 2.268 Q 97.672 2.268 98.05 2.604 Q 98.428 2.94 98.638 3.528 Q 98.806 3.906 98.785 4.179 Q 98.764 4.452 98.512 4.914 Q 97.966 5.922 97.231 7.581 Q 96.496 9.24 95.761 11.214 Q 95.026 13.188 94.396 15.12 Q 93.766 17.052 93.346 18.522 Q 93.094 19.446 92.905 20.874 Q 92.716 22.302 92.59 23.793 Q 92.464 25.284 92.443 26.439 Q 92.422 27.594 92.506 27.93 Q 92.758 28.77 92.737 29.19 Q 92.716 29.61 92.506 29.757 Q 92.296 29.904 91.834 29.946 Q 91.288 30.072 90.931 29.799 Q 90.574 29.526 90.406 29.022 Q 90.07 28.056 89.923 26.901 Q 89.776 25.746 89.86 24.864 Z M 49.666 38.556 Q 49.498 38.556 49.246 38.577 Q 48.994 38.598 48.784 38.22 Q 48.616 38.01 48.595 37.59 Q 48.574 37.17 48.784 36.078 Q 48.994 35.364 49.12 34.671 Q 49.246 33.978 49.246 33.642 Q 49.246 33.474 49.351 32.991 Q 49.456 32.508 49.456 32.298 Q 49.666 31.962 49.792 31.374 Q 49.918 30.786 49.918 30.324 Q 49.918 29.82 50.422 29.4 Q 50.422 29.064 50.569 28.56 Q 50.716 28.056 50.716 27.888 Q 50.842 27.3 51.283 25.809 Q 51.724 24.318 52.375 22.428 Q 53.026 20.538 53.656 18.732 Q 54.286 16.926 54.79 15.666 Q 55.294 14.49 55.483 13.629 Q 55.672 12.768 55.672 12.348 Q 55.672 12.18 55.756 12.075 Q 55.84 11.97 56.134 11.634 Q 56.554 11.214 56.869 11.382 Q 57.184 11.55 57.646 11.886 Q 57.982 12.432 58.129 12.81 Q 58.276 13.188 58.108 14.112 Q 58.108 14.742 57.898 15.204 Q 57.688 15.666 57.52 15.897 Q 57.352 16.128 57.436 16.086 Q 59.158 15.288 60.481 15.225 Q 61.804 15.162 62.707 15.687 Q 63.61 16.212 64.072 17.136 Q 64.534 18.06 64.534 19.278 Q 64.534 19.782 64.324 20.475 Q 64.114 21.168 63.799 21.735 Q 63.484 22.302 63.232 22.554 Q 63.064 22.554 62.896 22.827 Q 62.728 23.1 62.56 23.436 Q 62.224 23.856 61.489 24.381 Q 60.754 24.906 60.04 25.221 Q 59.326 25.536 58.99 25.41 L 58.885 25.431 Q 58.78 25.452 58.78 25.662 Q 58.78 25.746 58.108 26.019 Q 57.436 26.292 56.554 26.523 Q 55.672 26.754 55 26.754 Q 54.118 26.754 53.74 26.418 Q 53.656 26.502 53.551 26.67 Q 53.446 26.838 53.446 26.964 Q 53.446 27.216 53.257 27.909 Q 53.068 28.602 52.816 29.232 Q 52.564 29.862 52.354 29.862 L 52.27 29.988 Q 52.186 30.114 52.354 30.324 L 52.333 30.807 Q 52.312 31.29 52.102 31.626 Q 52.102 31.962 51.976 32.634 Q 51.85 33.306 51.682 33.642 Q 51.682 34.146 51.535 34.629 Q 51.388 35.112 51.22 35.112 Q 51.052 35.154 51.01 35.637 Q 50.968 36.12 50.968 36.33 Q 50.926 37.38 50.548 37.968 Q 50.17 38.556 49.666 38.556 Z M 74.572 27.678 Q 73.69 28.434 72.535 28.56 Q 71.38 28.686 70.288 28.203 Q 69.196 27.72 68.482 26.712 Q 67.768 25.788 67.558 24.591 Q 67.348 23.394 67.516 21.462 Q 67.642 19.824 68.566 18.165 Q 69.49 16.506 70.813 15.204 Q 72.136 13.902 73.438 13.398 Q 74.068 12.978 74.509 12.999 Q 74.95 13.02 75.874 13.104 Q 76.84 13.23 77.323 13.482 Q 77.806 13.734 78.1 14.154 Q 78.73 14.784 78.94 15.393 Q 79.15 16.002 79.15 16.59 Q 78.982 17.514 77.911 18.837 Q 76.84 20.16 75.118 21 Q 74.194 21.294 73.102 21.252 Q 72.01 21.21 71.296 20.706 Q 70.498 20.37 70.246 20.811 Q 69.994 21.252 69.784 22.932 Q 69.616 24.528 70.036 25.263 Q 70.456 25.998 71.17 26.124 Q 72.01 26.292 72.493 26.355 Q 72.976 26.418 73.69 25.998 Q 74.362 25.578 74.53 25.515 Q 74.698 25.452 74.803 25.347 L 75.328 24.822 Q 75.622 24.528 75.79 24.381 Q 75.958 24.234 76.168 24.234 Q 76.378 24.234 76.546 24.423 Q 76.714 24.612 76.882 24.696 Q 77.302 24.696 77.071 25.2 Q 76.84 25.704 76.168 26.397 Q 75.496 27.09 74.572 27.678 Z M 104.728 27.678 Q 103.846 28.434 102.691 28.56 Q 101.536 28.686 100.444 28.203 Q 99.352 27.72 98.638 26.712 Q 97.924 25.788 97.714 24.591 Q 97.504 23.394 97.672 21.462 Q 97.798 19.824 98.722 18.165 Q 99.646 16.506 100.969 15.204 Q 102.292 13.902 103.594 13.398 Q 104.224 12.978 104.665 12.999 Q 105.106 13.02 106.03 13.104 Q 106.996 13.23 107.479 13.482 Q 107.962 13.734 108.256 14.154 Q 108.886 14.784 109.096 15.393 Q 109.306 16.002 109.306 16.59 Q 109.138 17.514 108.067 18.837 Q 106.996 20.16 105.274 21 Q 104.35 21.294 103.258 21.252 Q 102.166 21.21 101.452 20.706 Q 100.654 20.37 100.402 20.811 Q 100.15 21.252 99.94 22.932 Q 99.772 24.528 100.192 25.263 Q 100.612 25.998 101.326 26.124 Q 102.166 26.292 102.649 26.355 Q 103.132 26.418 103.846 25.998 Q 104.518 25.578 104.686 25.515 Q 104.854 25.452 104.959 25.347 L 105.484 24.822 Q 105.778 24.528 105.946 24.381 Q 106.114 24.234 106.324 24.234 Q 106.534 24.234 106.702 24.423 Q 106.87 24.612 107.038 24.696 Q 107.458 24.696 107.227 25.2 Q 106.996 25.704 106.324 26.397 Q 105.652 27.09 104.728 27.678 Z M 20.392 27.804 Q 20.056 27.468 19.909 26.964 Q 19.762 26.46 19.804 25.956 Q 19.846 25.452 20.014 25.116 Q 20.014 24.78 20.119 24.591 Q 20.224 24.402 20.182 24.234 Q 20.14 24.066 20.266 23.646 Q 20.392 23.226 20.518 22.848 Q 20.812 22.176 21.148 21.231 Q 21.484 20.286 21.778 19.362 Q 22.072 18.438 22.282 17.766 Q 22.492 17.094 22.534 16.926 Q 22.534 16.422 23.206 16.38 Q 23.71 16.212 23.962 16.359 Q 24.214 16.506 24.634 17.178 Q 24.97 17.514 24.886 18.186 Q 24.802 18.858 24.34 19.866 Q 24.172 20.202 23.941 20.832 Q 23.71 21.462 23.626 21.966 Q 23.458 22.302 23.227 22.911 Q 22.996 23.52 22.828 24.066 Q 22.744 24.276 22.66 24.675 Q 22.576 25.074 22.45 25.515 Q 22.324 25.956 22.114 26.292 Q 21.736 28.014 21.421 28.308 Q 21.106 28.602 20.392 27.804 Z M 84.736 25.284 Q 85.324 25.158 85.891 24.822 Q 86.458 24.486 87.088 24.024 Q 88.348 23.058 89.272 22.26 Q 90.196 21.462 90.49 19.824 Q 90.574 19.026 90.343 18.543 Q 90.112 18.06 89.608 17.64 Q 89.104 17.304 88.243 17.367 Q 87.382 17.43 86.458 18.27 Q 85.45 19.194 84.505 20.748 Q 83.56 22.302 83.098 24.57 Q 83.014 24.99 83.35 25.242 Q 83.686 25.494 84.736 25.284 Z M 54.748 24.528 Q 55.084 24.528 56.134 24.234 Q 57.184 23.94 58.297 23.499 Q 59.41 23.058 59.956 22.596 Q 61.048 21.63 61.657 20.391 Q 62.266 19.152 61.552 18.018 Q 61.216 17.43 60.334 17.535 Q 59.452 17.64 58.402 18.228 Q 57.352 18.816 56.428 19.698 Q 55.924 20.244 55.504 21.042 Q 55.084 21.84 54.811 22.638 Q 54.538 23.436 54.496 23.982 Q 54.454 24.528 54.748 24.528 Z M 74.53 18.774 Q 74.992 18.564 75.496 18.165 Q 76 17.766 76.357 17.283 Q 76.714 16.8 76.714 16.464 Q 76.714 15.876 76.168 15.477 Q 75.622 15.078 74.53 15.372 Q 74.068 15.498 73.48 15.981 Q 72.892 16.464 72.367 17.052 Q 71.842 17.64 71.527 18.102 Q 71.212 18.564 71.296 18.648 Q 71.422 18.858 72.01 18.963 Q 72.598 19.068 73.333 19.026 Q 74.068 18.984 74.53 18.774 Z M 104.686 18.774 Q 105.148 18.564 105.652 18.165 Q 106.156 17.766 106.513 17.283 Q 106.87 16.8 106.87 16.464 Q 106.87 15.876 106.324 15.477 Q 105.778 15.078 104.686 15.372 Q 104.224 15.498 103.636 15.981 Q 103.048 16.464 102.523 17.052 Q 101.998 17.64 101.683 18.102 Q 101.368 18.564 101.452 18.648 Q 101.578 18.858 102.166 18.963 Q 102.754 19.068 103.489 19.026 Q 104.224 18.984 104.686 18.774 Z M 24.466 10.752 Q 24.256 10.542 24.088 10.143 Q 23.92 9.744 23.878 9.387 Q 23.836 9.03 23.962 9.03 Q 24.298 8.988 24.76 8.316 Q 25.222 7.644 25.138 7.14 Q 25.138 6.972 25.264 6.825 Q 25.39 6.678 25.558 6.636 Q 26.062 6.3 26.545 6.531 Q 27.028 6.762 27.448 7.434 Q 27.826 8.232 27.658 8.757 Q 27.49 9.282 26.734 10.206 Q 26.104 11.046 25.579 11.13 Q 25.054 11.214 24.466 10.752 Z" vector-effect="non-scaling-stroke"/></g></svg>
</svg>