<svg xmlns="http://www.w3.org/2000/svg" viewBox="0 0 210 39">
  <defs>
    <radialGradient id="a" cx="-4.619%" cy="6.646%" r="101.342%" fx="-4.619%" fy="6.646%" gradientTransform="matrix(.8299 .53351 -.5579 .79363 .03 .038)">
      <stop offset="0%" stop-color="#00FFB4" />
      <stop offset="100%" stop-color="#00E1FF" />
    </radialGradient>
  </defs>
  <g id="svgGroup" fill="url(#a)" fill-rule="nonzero" stroke-linecap="round">
    <path d="M 14.94 16.605 L 12.69 17.1 A 592.831 592.831 0 0 1 10.409 17.582 Q 9.02 17.872 7.83 18.113 A 23.986 23.986 0 0 1 6.066 18.405 Q 5.189 18.515 4.406 18.535 A 13.535 13.535 0 0 1 4.05 18.54 A 9.927 9.927 0 0 1 2.928 18.481 Q 2.392 18.42 1.948 18.296 A 3.879 3.879 0 0 1 1.058 17.933 Q 0 17.325 0 15.84 Q 0 15.337 0.15 14.683 A 9.133 9.133 0 0 1 0.27 14.22 Q 1.133 11.371 4.772 8.19 A 30.532 30.532 0 0 1 5.085 7.92 A 34.195 34.195 0 0 1 10.214 4.344 A 38.371 38.371 0 0 1 11.025 3.893 A 38.163 38.163 0 0 1 17.139 1.227 A 35.142 35.142 0 0 1 17.663 1.058 Q 21.015 0 23.94 0 Q 25.636 0 26.808 0.563 A 4.285 4.285 0 0 1 27.518 0.99 A 3.139 3.139 0 0 1 28.824 3.268 A 4.079 4.079 0 0 1 28.845 3.69 A 5.117 5.117 0 0 1 28.581 5.269 Q 28.3 6.137 27.72 7.065 Q 27.405 7.515 27.18 7.515 Q 27.104 7.515 27.028 7.403 A 0.704 0.704 0 0 1 27 7.358 Q 26.91 7.2 26.91 7.02 A 0.3 0.3 0 0 1 26.911 6.994 Q 26.915 6.949 26.931 6.87 A 2.924 2.924 0 0 1 26.933 6.863 Q 26.953 6.762 26.991 6.607 A 11.844 11.844 0 0 1 27 6.57 A 7.196 7.196 0 0 0 27.291 5.384 A 5.837 5.837 0 0 0 27.36 4.5 A 3.514 3.514 0 0 0 27.246 3.578 A 2.43 2.43 0 0 0 26.303 2.205 Q 25.245 1.44 23.265 1.62 Q 20.572 1.9 17.28 3.077 A 42.204 42.204 0 0 0 15.345 3.825 Q 12.33 5.085 9.653 6.795 A 30.156 30.156 0 0 0 6.918 8.754 A 23.671 23.671 0 0 0 5.063 10.418 Q 3.418 12.062 2.655 13.723 A 7.902 7.902 0 0 0 2.43 14.265 A 1.652 1.652 0 0 0 2.285 14.713 A 2.291 2.291 0 0 0 2.25 15.12 A 1.442 1.442 0 0 0 3.139 16.47 Q 3.83 16.82 5.058 16.898 A 11.834 11.834 0 0 0 5.805 16.92 Q 7.515 16.92 9.563 16.56 A 160.362 160.362 0 0 0 11.19 16.265 Q 11.906 16.131 12.686 15.98 A 277.749 277.749 0 0 0 14.31 15.66 L 15.885 15.345 A 9.735 9.735 0 0 1 17.22 15.213 A 8.793 8.793 0 0 1 17.46 15.21 A 5.756 5.756 0 0 1 18.381 15.279 Q 18.864 15.358 19.258 15.525 A 2.849 2.849 0 0 1 19.755 15.795 Q 20.564 16.348 20.608 17.304 A 2.42 2.42 0 0 1 20.61 17.415 Q 20.61 18.36 19.8 19.665 Q 19.035 20.88 18 21.983 A 23.845 23.845 0 0 1 16.093 23.795 A 26.767 26.767 0 0 1 15.705 24.12 Q 13.14 26.19 10.215 27.405 A 17.03 17.03 0 0 1 7.542 28.277 A 12.628 12.628 0 0 1 4.68 28.62 A 4.088 4.088 0 0 1 4.062 28.577 Q 3.388 28.473 2.993 28.125 Q 2.43 27.63 2.43 26.775 A 3.087 3.087 0 0 1 2.546 25.959 Q 2.643 25.606 2.82 25.232 A 5.73 5.73 0 0 1 2.925 25.02 A 5.941 5.941 0 0 1 3.797 23.785 A 7.301 7.301 0 0 1 4.32 23.265 Q 4.59 23.04 4.77 22.995 A 0.333 0.333 0 0 1 4.889 23.016 A 0.299 0.299 0 0 1 4.995 23.085 A 0.115 0.115 0 0 1 5.019 23.122 Q 5.034 23.159 5.038 23.218 A 0.668 0.668 0 0 1 5.04 23.265 Q 5.04 23.58 4.635 23.985 A 8.238 8.238 0 0 0 4.091 24.603 Q 3.375 25.512 3.375 26.19 A 1.077 1.077 0 0 0 3.588 26.828 A 1.627 1.627 0 0 0 3.825 27.09 Q 4.275 27.495 4.86 27.45 A 13.939 13.939 0 0 0 8.018 26.944 A 17.005 17.005 0 0 0 9.495 26.46 Q 11.88 25.56 13.95 23.963 A 15.005 15.005 0 0 0 17.155 20.616 A 14.187 14.187 0 0 0 17.37 20.295 Q 18.348 18.872 18.36 17.801 A 2.373 2.373 0 0 0 18.36 17.775 A 1.521 1.521 0 0 0 18.24 17.149 Q 17.949 16.498 16.946 16.398 A 3.91 3.91 0 0 0 16.56 16.38 A 3.535 3.535 0 0 0 16.267 16.393 Q 16.118 16.406 15.952 16.43 A 6.183 6.183 0 0 0 15.84 16.448 Q 15.435 16.515 14.94 16.605 Z" transform="translate(4.000000, 3.750000)" vector-effect="non-scaling-stroke" />
  </g>
<g transform="translate(52.0000, 2.8000)" id="svgGroup" stroke-linecap="round" fill-rule="evenodd" font-size="9pt" stroke="#000" stroke-width="0.25mm" fill="#000" style="stroke:#000;stroke-width:0.25mm;fill:#000"><path d="M 40.852 25.635 L 39.211 25.635 L 39.211 16.611 Q 39.293 13.043 41.549 11.361 Q 42.574 10.582 43.641 10.582 Q 45.609 10.582 46.348 12.838 Q 46.635 13.781 46.635 14.93 L 46.635 23.215 Q 46.635 25.061 45.814 25.43 Q 45.24 25.635 44.01 25.635 L 44.01 26.66 L 52.787 26.66 Q 52.787 25.758 52.172 25.676 Q 52.008 25.635 51.762 25.635 L 50.162 25.635 L 50.162 15.381 L 50.162 14.93 Q 50.818 11.936 52.951 10.869 Q 53.689 10.5 54.387 10.5 Q 56.438 10.5 57.258 12.674 Q 57.627 13.658 57.627 14.93 L 57.627 23.215 Q 57.627 25.061 56.766 25.43 Q 56.191 25.635 54.961 25.635 L 54.961 26.66 L 64.066 26.66 Q 64.066 25.758 63.451 25.676 Q 63.287 25.635 63.041 25.635 L 61.113 25.635 L 61.113 15.34 Q 61.113 11.197 58.365 9.475 Q 57.135 8.736 55.699 8.736 Q 52.254 8.736 50.326 12.1 Q 50.08 12.551 49.875 13.043 Q 49.096 9.967 46.635 9.023 Q 45.896 8.736 45.117 8.736 Q 42 8.736 40.031 11.443 Q 39.539 12.182 39.17 13.002 L 39.006 9.188 L 32.771 9.188 L 32.771 10.213 L 35.725 10.213 L 35.725 23.215 Q 35.725 25.102 34.576 25.471 Q 33.961 25.635 32.771 25.635 L 32.771 26.66 L 41.836 26.66 Q 41.836 25.758 41.262 25.676 Q 41.057 25.635 40.852 25.635 Z M 15.463 9.064 L 16.775 9.064 L 16.775 1.846 Q 15.709 1.846 15.586 2.543 Q 15.504 2.83 15.504 3.24 Q 12.469 1.641 8.818 1.641 Q 4.348 1.641 1.846 4.102 Q 0.164 5.783 0.164 8.121 Q 0.164 11.566 3.979 13.74 Q 4.676 14.15 8.654 15.955 Q 12.305 17.596 13.289 19.318 Q 13.781 20.221 13.781 21.287 Q 13.781 24.158 11.074 25.389 Q 9.803 25.922 8.285 25.922 Q 2.338 25.922 1.395 19.072 Q 1.354 18.621 1.313 18.211 L 0 18.211 L 0 26.742 Q 0.984 26.742 1.189 26.168 Q 1.271 25.799 1.271 24.979 Q 4.43 27.07 8.531 27.07 Q 13.289 27.07 15.914 24.527 Q 17.76 22.682 17.76 20.139 Q 17.76 16.529 13.822 14.273 Q 13.166 13.863 9.146 12.059 Q 5.537 10.459 4.594 8.777 Q 4.143 7.875 4.143 6.891 Q 4.143 4.266 6.686 3.24 Q 7.793 2.789 9.105 2.789 Q 12.51 2.789 14.273 5.127 Q 15.504 6.727 15.463 9.064 Z M 75.182 33.428 L 72.475 33.428 L 72.475 24.979 Q 74.607 26.906 77.602 27.07 Q 81.334 27.07 83.795 24.24 Q 86.092 21.574 86.092 17.473 Q 86.092 12.756 83.426 10.336 Q 81.621 8.736 79.119 8.736 Q 75.428 8.736 73.418 11.566 Q 72.762 12.469 72.393 13.535 L 72.188 9.188 L 66.035 9.188 L 66.035 10.213 L 68.947 10.213 L 68.947 31.008 Q 68.947 32.854 67.881 33.223 Q 67.266 33.428 66.035 33.428 L 66.035 34.453 L 76.207 34.453 Q 76.207 33.551 75.592 33.469 Q 75.428 33.428 75.182 33.428 Z M 121.98 22.395 L 122.35 26.66 L 128.502 26.66 Q 128.502 25.799 127.969 25.676 Q 127.764 25.635 127.518 25.635 L 125.467 25.635 L 125.426 0 L 118.043 0 L 118.043 1.025 L 121.898 1.025 L 121.898 10.828 Q 119.848 8.736 116.566 8.736 Q 112.219 8.736 109.881 12.469 Q 108.322 15.053 108.322 18.334 Q 108.322 23.379 111.563 25.758 Q 113.367 27.07 115.582 27.07 Q 120.094 26.988 121.98 22.395 Z M 105.164 22.682 L 104.139 22.313 Q 102.826 25.184 99.955 25.799 Q 99.299 25.922 98.684 25.922 Q 94.336 25.922 93.352 20.426 Q 93.146 19.154 93.105 17.637 L 97.822 17.719 Q 103.072 17.801 104.508 16.652 Q 105.451 15.832 105.451 14.438 Q 105.451 11.525 102.498 9.844 Q 100.447 8.736 97.822 8.736 Q 92.859 8.736 90.521 12.715 Q 89.209 15.012 89.209 18.006 Q 89.209 23.256 93.023 25.717 Q 95.197 27.07 97.945 27.07 Q 102.539 27.07 104.631 23.748 Q 104.918 23.215 105.164 22.682 Z M 146.959 22.682 L 145.934 22.313 Q 144.621 25.184 141.75 25.799 Q 141.094 25.922 140.479 25.922 Q 136.131 25.922 135.146 20.426 Q 134.941 19.154 134.9 17.637 L 139.617 17.719 Q 144.867 17.801 146.303 16.652 Q 147.246 15.832 147.246 14.438 Q 147.246 11.525 144.293 9.844 Q 142.242 8.736 139.617 8.736 Q 134.654 8.736 132.316 12.715 Q 131.004 15.012 131.004 18.006 Q 131.004 23.256 134.818 25.717 Q 136.992 27.07 139.74 27.07 Q 144.334 27.07 146.426 23.748 Q 146.713 23.215 146.959 22.682 Z M 29.449 25.635 L 27.521 25.635 L 27.521 9.188 L 20.918 9.188 L 20.918 10.213 L 24.035 10.213 L 24.035 23.215 Q 24.035 25.102 22.764 25.471 Q 22.148 25.635 20.918 25.635 L 20.918 26.66 L 30.475 26.66 Q 30.475 25.758 29.859 25.676 Q 29.695 25.635 29.449 25.635 Z M 77.643 10.459 Q 81.293 10.459 82.031 15.504 Q 82.195 16.652 82.195 17.924 Q 82.195 24.199 78.955 25.676 Q 78.135 26.045 77.191 26.045 Q 74.197 26.045 73.008 22.723 Q 72.434 21.041 72.434 18.703 Q 72.434 13.412 75.059 11.361 Q 76.248 10.459 77.643 10.459 Z M 112.219 17.842 Q 112.219 12.1 115.172 10.377 Q 116.115 9.803 117.305 9.803 Q 120.217 9.803 121.406 13.043 Q 122.021 14.766 122.021 17.063 Q 122.021 22.23 119.52 24.404 Q 118.33 25.389 116.813 25.389 Q 113.654 25.389 112.629 21.369 Q 112.219 19.811 112.219 17.842 Z M 97.125 16.611 L 93.105 16.488 Q 93.27 11.648 96.059 10.213 Q 96.92 9.762 97.904 9.762 Q 100.693 9.762 101.514 12.305 Q 101.76 13.084 101.76 13.945 Q 101.76 15.955 99.955 16.406 Q 98.93 16.652 97.125 16.611 Z M 138.92 16.611 L 134.9 16.488 Q 135.064 11.648 137.854 10.213 Q 138.715 9.762 139.699 9.762 Q 142.488 9.762 143.309 12.305 Q 143.555 13.084 143.555 13.945 Q 143.555 15.955 141.75 16.406 Q 140.725 16.652 138.92 16.611 Z M 27.973 3.322 Q 27.973 1.846 26.66 1.148 Q 26.127 0.902 25.594 0.902 Q 24.076 0.902 23.42 2.256 Q 23.174 2.789 23.174 3.322 Q 23.174 4.881 24.568 5.537 Q 25.061 5.742 25.594 5.742 Q 27.07 5.742 27.727 4.389 Q 27.973 3.855 27.973 3.322 Z"/></g>
  <circle id="c1" cx="8" cy="4.5" r="3" fill="red" transform="translate(69.50000, 1.4)" />
</svg>