<svg xmlns="http://www.w3.org/2000/svg" viewBox="0 0 210 39">
  <defs>
    <radialGradient id="a" cx="-4.619%" cy="6.646%" r="101.342%" fx="-4.619%" fy="6.646%" gradientTransform="matrix(.8299 .53351 -.5579 .79363 .03 .038)">
      <stop offset="0%" stop-color="#00FFB4" />
      <stop offset="100%" stop-color="#00E1FF" />
    </radialGradient>
  </defs>
  <g id="svgGroup" fill="url(#a)" fill-rule="nonzero" stroke-linecap="round">
    <path d="M 14.94 16.605 L 12.69 17.1 A 592.831 592.831 0 0 1 10.409 17.582 Q 9.02 17.872 7.83 18.113 A 23.986 23.986 0 0 1 6.066 18.405 Q 5.189 18.515 4.406 18.535 A 13.535 13.535 0 0 1 4.05 18.54 A 9.927 9.927 0 0 1 2.928 18.481 Q 2.392 18.42 1.948 18.296 A 3.879 3.879 0 0 1 1.058 17.933 Q 0 17.325 0 15.84 Q 0 15.337 0.15 14.683 A 9.133 9.133 0 0 1 0.27 14.22 Q 1.133 11.371 4.772 8.19 A 30.532 30.532 0 0 1 5.085 7.92 A 34.195 34.195 0 0 1 10.214 4.344 A 38.371 38.371 0 0 1 11.025 3.893 A 38.163 38.163 0 0 1 17.139 1.227 A 35.142 35.142 0 0 1 17.663 1.058 Q 21.015 0 23.94 0 Q 25.636 0 26.808 0.563 A 4.285 4.285 0 0 1 27.518 0.99 A 3.139 3.139 0 0 1 28.824 3.268 A 4.079 4.079 0 0 1 28.845 3.69 A 5.117 5.117 0 0 1 28.581 5.269 Q 28.3 6.137 27.72 7.065 Q 27.405 7.515 27.18 7.515 Q 27.104 7.515 27.028 7.403 A 0.704 0.704 0 0 1 27 7.358 Q 26.91 7.2 26.91 7.02 A 0.3 0.3 0 0 1 26.911 6.994 Q 26.915 6.949 26.931 6.87 A 2.924 2.924 0 0 1 26.933 6.863 Q 26.953 6.762 26.991 6.607 A 11.844 11.844 0 0 1 27 6.57 A 7.196 7.196 0 0 0 27.291 5.384 A 5.837 5.837 0 0 0 27.36 4.5 A 3.514 3.514 0 0 0 27.246 3.578 A 2.43 2.43 0 0 0 26.303 2.205 Q 25.245 1.44 23.265 1.62 Q 20.572 1.9 17.28 3.077 A 42.204 42.204 0 0 0 15.345 3.825 Q 12.33 5.085 9.653 6.795 A 30.156 30.156 0 0 0 6.918 8.754 A 23.671 23.671 0 0 0 5.063 10.418 Q 3.418 12.062 2.655 13.723 A 7.902 7.902 0 0 0 2.43 14.265 A 1.652 1.652 0 0 0 2.285 14.713 A 2.291 2.291 0 0 0 2.25 15.12 A 1.442 1.442 0 0 0 3.139 16.47 Q 3.83 16.82 5.058 16.898 A 11.834 11.834 0 0 0 5.805 16.92 Q 7.515 16.92 9.563 16.56 A 160.362 160.362 0 0 0 11.19 16.265 Q 11.906 16.131 12.686 15.98 A 277.749 277.749 0 0 0 14.31 15.66 L 15.885 15.345 A 9.735 9.735 0 0 1 17.22 15.213 A 8.793 8.793 0 0 1 17.46 15.21 A 5.756 5.756 0 0 1 18.381 15.279 Q 18.864 15.358 19.258 15.525 A 2.849 2.849 0 0 1 19.755 15.795 Q 20.564 16.348 20.608 17.304 A 2.42 2.42 0 0 1 20.61 17.415 Q 20.61 18.36 19.8 19.665 Q 19.035 20.88 18 21.983 A 23.845 23.845 0 0 1 16.093 23.795 A 26.767 26.767 0 0 1 15.705 24.12 Q 13.14 26.19 10.215 27.405 A 17.03 17.03 0 0 1 7.542 28.277 A 12.628 12.628 0 0 1 4.68 28.62 A 4.088 4.088 0 0 1 4.062 28.577 Q 3.388 28.473 2.993 28.125 Q 2.43 27.63 2.43 26.775 A 3.087 3.087 0 0 1 2.546 25.959 Q 2.643 25.606 2.82 25.232 A 5.73 5.73 0 0 1 2.925 25.02 A 5.941 5.941 0 0 1 3.797 23.785 A 7.301 7.301 0 0 1 4.32 23.265 Q 4.59 23.04 4.77 22.995 A 0.333 0.333 0 0 1 4.889 23.016 A 0.299 0.299 0 0 1 4.995 23.085 A 0.115 0.115 0 0 1 5.019 23.122 Q 5.034 23.159 5.038 23.218 A 0.668 0.668 0 0 1 5.04 23.265 Q 5.04 23.58 4.635 23.985 A 8.238 8.238 0 0 0 4.091 24.603 Q 3.375 25.512 3.375 26.19 A 1.077 1.077 0 0 0 3.588 26.828 A 1.627 1.627 0 0 0 3.825 27.09 Q 4.275 27.495 4.86 27.45 A 13.939 13.939 0 0 0 8.018 26.944 A 17.005 17.005 0 0 0 9.495 26.46 Q 11.88 25.56 13.95 23.963 A 15.005 15.005 0 0 0 17.155 20.616 A 14.187 14.187 0 0 0 17.37 20.295 Q 18.348 18.872 18.36 17.801 A 2.373 2.373 0 0 0 18.36 17.775 A 1.521 1.521 0 0 0 18.24 17.149 Q 17.949 16.498 16.946 16.398 A 3.91 3.91 0 0 0 16.56 16.38 A 3.535 3.535 0 0 0 16.267 16.393 Q 16.118 16.406 15.952 16.43 A 6.183 6.183 0 0 0 15.84 16.448 Q 15.435 16.515 14.94 16.605 Z" transform="translate(4.000000, 3.750000)" vector-effect="non-scaling-stroke" />
  </g>
<g id="svgGroup" stroke-linecap="round" fill-rule="evenodd" font-size="9pt" stroke="#000" stroke-width="0.25mm" fill="#000" style="stroke:#000;stroke-width:0.25mm;fill:#000"><path d="M 45.326 28.031 L 44.113 28.031 L 44.158 16.936 Q 44.473 13.252 46.764 11.949 Q 47.482 11.545 48.201 11.545 Q 50.043 11.545 50.807 13.746 Q 51.121 14.734 51.121 15.992 L 51.121 25.605 Q 51.121 27.447 50.268 27.807 Q 49.773 28.031 48.785 28.031 L 48.785 29.199 L 58.354 29.199 Q 58.354 28.211 57.77 28.076 Q 57.5 28.031 57.23 28.031 L 56.063 28.031 L 56.063 16.666 L 56.063 16.082 Q 56.557 12.758 58.713 11.725 Q 59.297 11.455 59.881 11.455 Q 61.947 11.455 62.756 13.746 Q 63.07 14.779 63.07 15.992 L 63.07 25.605 Q 63.07 27.447 62.217 27.807 Q 61.723 28.031 60.734 28.031 L 60.734 29.199 L 70.842 29.199 Q 70.842 28.211 70.258 28.076 Q 69.988 28.031 69.719 28.031 L 68.012 28.031 L 68.012 16.486 Q 68.012 12.039 65.047 10.197 Q 63.699 9.344 62.127 9.344 Q 57.904 9.344 55.793 13.432 Q 55.703 13.611 55.658 13.746 Q 54.67 10.422 51.885 9.568 Q 51.166 9.344 50.402 9.344 Q 46.449 9.344 44.428 12.848 L 44.068 13.566 L 43.844 9.973 L 36.297 9.973 L 36.297 11.096 L 39.172 11.096 L 39.172 25.605 Q 39.172 27.582 37.689 27.896 Q 37.105 28.031 36.297 28.031 L 36.297 29.199 L 46.404 29.199 Q 46.404 28.166 45.73 28.076 Q 45.551 28.031 45.326 28.031 Z M 17.475 10.018 L 19.092 10.018 L 19.092 1.977 Q 17.834 1.977 17.654 2.83 Q 17.609 3.145 17.609 3.549 Q 14.061 1.797 9.973 1.797 Q 4.762 1.797 2.021 4.582 Q 0.225 6.424 0.225 8.939 Q 0.225 12.713 4.447 15.273 Q 5.121 15.633 9.389 17.744 Q 13.342 19.676 14.285 21.563 Q 14.779 22.506 14.779 23.539 Q 14.779 26.684 11.859 27.852 Q 10.691 28.346 9.254 28.346 Q 3.908 28.346 2.201 23.09 Q 1.752 21.607 1.617 19.855 L 0 19.855 L 0 29.289 Q 1.123 29.289 1.348 28.615 Q 1.438 28.211 1.438 27.357 Q 4.941 29.648 9.658 29.648 Q 15.184 29.648 18.148 26.773 Q 20.215 24.752 20.215 21.832 Q 20.215 18.014 15.992 15.408 Q 15.363 15.049 11.141 12.982 Q 7.277 11.051 6.334 9.209 Q 5.84 8.221 5.84 7.188 Q 5.84 4.492 8.445 3.504 Q 9.479 3.1 10.646 3.1 Q 14.33 3.1 16.217 5.75 Q 17.475 7.547 17.475 10.018 Z M 83.016 36.566 L 80.455 36.566 L 80.455 27.492 Q 82.342 29.604 85.936 29.648 Q 90.203 29.648 92.898 26.369 Q 95.279 23.449 95.279 19.002 Q 95.279 13.521 92.09 10.916 Q 90.158 9.344 87.643 9.344 Q 83.914 9.344 81.668 12.129 Q 80.814 13.207 80.365 14.465 L 80.141 9.973 L 72.684 9.973 L 72.684 11.096 L 75.514 11.096 L 75.514 34.141 Q 75.514 36.027 74.256 36.387 Q 73.672 36.566 72.684 36.566 L 72.684 37.734 L 84.139 37.734 Q 84.139 36.746 83.555 36.611 Q 83.285 36.566 83.016 36.566 Z M 134.361 24.842 L 134.9 29.199 L 142.447 29.199 Q 142.447 28.211 141.908 28.076 Q 141.684 28.031 141.324 28.031 L 139.213 28.031 L 139.213 0 L 130.094 0 L 130.094 1.168 L 134.227 1.168 L 134.227 11.455 Q 131.936 9.344 128.611 9.344 Q 124.164 9.344 121.514 12.938 Q 119.402 15.857 119.402 19.99 Q 119.402 25.561 123.041 28.211 Q 125.063 29.648 127.533 29.648 Q 131.936 29.648 134.002 25.605 Q 134.227 25.201 134.361 24.842 Z M 116.258 24.662 L 115.18 24.303 Q 113.877 27.133 111.047 28.031 Q 110.104 28.346 109.115 28.346 Q 103.859 28.346 103.635 19.406 L 103.635 19.316 L 108.172 19.406 Q 114.91 19.541 116.258 17.475 Q 116.707 16.756 116.707 15.768 Q 116.707 12.219 113.113 10.422 Q 110.867 9.344 108.037 9.344 Q 102.871 9.344 100.131 13.072 Q 98.199 15.723 98.199 19.496 Q 98.199 25.65 102.736 28.301 Q 105.162 29.648 108.172 29.648 Q 113.293 29.648 115.584 26.01 Q 115.988 25.336 116.258 24.662 Z M 162.797 24.662 L 161.719 24.303 Q 160.416 27.133 157.586 28.031 Q 156.643 28.346 155.654 28.346 Q 150.398 28.346 150.174 19.406 L 150.174 19.316 L 154.711 19.406 Q 161.449 19.541 162.797 17.475 Q 163.246 16.756 163.246 15.768 Q 163.246 12.219 159.652 10.422 Q 157.406 9.344 154.576 9.344 Q 149.41 9.344 146.67 13.072 Q 144.738 15.723 144.738 19.496 Q 144.738 25.65 149.275 28.301 Q 151.701 29.648 154.711 29.648 Q 159.832 29.648 162.123 26.01 Q 162.527 25.336 162.797 24.662 Z M 33.107 28.031 L 31.266 28.031 L 31.266 9.973 L 23.404 9.973 L 23.404 11.096 L 26.324 11.096 L 26.324 25.605 Q 26.324 27.537 24.842 27.896 Q 24.303 28.031 23.404 28.031 L 23.404 29.199 L 34.186 29.199 Q 34.186 28.166 33.512 28.076 Q 33.332 28.031 33.107 28.031 Z M 85.576 11.41 Q 89.844 11.5 89.889 19.586 Q 89.889 27.268 86.25 28.346 Q 85.756 28.48 85.172 28.48 Q 82.432 28.48 81.174 25.291 Q 80.41 23.27 80.41 20.439 Q 80.41 14.734 83.016 12.398 Q 84.184 11.41 85.576 11.41 Z M 124.838 19.451 Q 124.838 12.982 127.803 11.23 Q 128.746 10.691 129.779 10.691 Q 132.879 10.691 133.912 14.779 Q 134.316 16.441 134.316 18.598 Q 134.316 24.887 131.531 26.953 Q 130.543 27.672 129.33 27.672 Q 126.006 27.672 125.107 22.82 Q 124.838 21.293 124.838 19.451 Z M 107.094 18.148 L 103.635 18.014 Q 103.814 11.635 107.004 10.646 Q 107.543 10.512 108.037 10.512 Q 110.822 10.512 111.361 13.791 Q 111.496 14.51 111.496 15.273 Q 111.496 17.385 109.969 17.924 Q 108.98 18.193 107.094 18.148 Z M 153.633 18.148 L 150.174 18.014 Q 150.354 11.635 153.543 10.646 Q 154.082 10.512 154.576 10.512 Q 157.361 10.512 157.9 13.791 Q 158.035 14.51 158.035 15.273 Q 158.035 17.385 156.508 17.924 Q 155.52 18.193 153.633 18.148 Z M 31.715 3.863 Q 31.715 2.021 30.053 1.123 Q 29.379 0.764 28.66 0.764 Q 26.818 0.764 25.965 2.426 Q 25.605 3.145 25.605 3.863 Q 25.605 5.75 27.268 6.559 Q 27.941 6.873 28.66 6.873 Q 30.502 6.873 31.355 5.301 Q 31.715 4.627 31.715 3.863 Z" transform="translate(44.0000, 0.7000)"/></g>
  <circle id="c1" cx="3.25" cy="3.25" r="3.5" fill="red" transform="translate(69.50000, 1.4)" />
</svg>