<svg xmlns="http://www.w3.org/2000/svg" viewBox="0 0 57 13">
  <defs>
    <radialGradient id="a" cx="-4.619%" cy="6.646%" r="101.342%" fx="-4.619%" fy="6.646%" gradientTransform="matrix(.8299 .53351 -.5579 .79363 .03 .038)">
      <stop offset="0%" stop-color="#00FFB4" />
      <stop offset="100%" stop-color="#39b0deff" />
    </radialGradient>
  </defs>
<g id="svgGroup" stroke-linecap="round" fill-rule="evenodd" font-size="9pt" stroke="url(#a)" stroke-width="0.25mm" fill="url(#a)" style="stroke:url(#a);stroke-width:0.25mm;fill:url(#a)"><path d="M 1.715 10.416 Q 1.463 10.346 1.309 10.297 L 1.155 10.248 Q 1.183 10.178 1.134 10.122 Q 1.085 10.066 0.931 10.052 Q 0.721 9.926 0.546 9.737 Q 0.371 9.548 0.259 9.366 Q 0.147 9.184 0.091 9.058 Q -0.007 8.848 0 8.799 Q 0.007 8.75 0.161 8.68 Q 0.315 8.568 0.392 8.61 Q 0.469 8.652 0.581 8.89 Q 0.763 9.212 1.204 9.38 Q 1.645 9.548 2.198 9.527 Q 2.751 9.506 3.255 9.282 Q 3.773 9.072 3.906 8.841 Q 4.039 8.61 3.801 8.246 Q 3.759 8.134 3.703 8.064 Q 3.647 7.994 3.528 7.882 Q 3.409 7.77 3.143 7.518 Q 2.933 7.42 2.758 7.336 Q 2.583 7.252 2.387 7.154 Q 2.163 7.042 1.848 6.825 Q 1.533 6.608 1.253 6.342 Q 0.973 6.076 0.847 5.852 Q 0.623 5.642 0.511 5.271 Q 0.399 4.9 0.427 4.48 Q 0.455 4.06 0.637 3.724 Q 0.721 3.528 0.924 3.241 Q 1.127 2.954 1.379 2.66 Q 1.631 2.366 1.869 2.128 Q 2.107 1.89 2.261 1.792 Q 2.373 1.68 2.499 1.561 L 2.625 1.442 Q 2.639 1.372 2.674 1.372 L 2.709 1.372 Q 2.779 1.33 3.017 1.232 Q 3.255 1.134 3.535 0.868 Q 4.473 0.42 5.061 0.21 Q 5.649 0 6.027 0 Q 6.377 0.014 6.664 0.161 Q 6.951 0.308 7.14 0.546 Q 7.329 0.784 7.371 1.12 Q 7.469 1.456 7.315 1.897 Q 7.161 2.338 6.86 2.723 Q 6.559 3.108 6.209 3.304 Q 5.817 3.472 5.684 3.451 Q 5.551 3.43 5.565 3.164 Q 5.565 3.052 5.642 2.898 Q 5.719 2.744 6.069 2.352 Q 6.517 1.694 6.615 1.302 Q 6.713 0.91 6.433 0.868 Q 6.349 0.84 6.132 0.868 Q 5.915 0.896 5.656 0.945 Q 5.397 0.994 5.215 1.043 Q 5.033 1.092 5.033 1.12 L 5.033 1.162 Q 5.033 1.204 4.977 1.19 Q 4.949 1.19 4.739 1.302 Q 4.529 1.414 4.235 1.596 L 3.647 1.96 Q 3.353 2.142 3.15 2.275 Q 2.947 2.408 2.933 2.436 Q 2.905 2.59 2.611 2.716 Q 2.331 2.884 2.1 3.206 Q 1.869 3.528 1.589 4.004 Q 1.351 4.326 1.253 4.697 Q 1.155 5.068 1.253 5.292 Q 1.323 5.516 1.687 5.866 Q 2.051 6.216 2.597 6.538 Q 3.073 6.804 3.451 7.063 Q 3.829 7.322 4.074 7.56 Q 4.319 7.798 4.403 7.98 Q 4.571 8.218 4.648 8.463 Q 4.725 8.708 4.732 8.932 Q 4.739 9.156 4.683 9.338 Q 4.585 9.562 4.34 9.8 Q 4.095 10.038 3.927 10.024 Q 3.773 10.066 3.696 10.122 Q 3.619 10.178 3.521 10.22 Q 3.423 10.276 3.108 10.332 Q 2.793 10.388 2.415 10.409 Q 2.037 10.43 1.715 10.416 Z M 18.641 8.918 L 18.487 8.792 Q 18.417 8.722 18.403 8.645 Q 18.389 8.568 18.417 8.47 L 18.739 7.546 Q 18.963 7.042 19.047 6.811 Q 19.131 6.58 19.131 6.517 Q 19.131 6.454 19.089 6.468 Q 18.977 6.482 18.753 6.601 Q 18.529 6.72 18.459 6.832 Q 18.403 6.832 18.291 6.958 Q 18.179 7.084 18.011 7.196 Q 17.913 7.364 17.626 7.63 Q 17.339 7.896 17.059 8.176 Q 16.877 8.33 16.702 8.554 Q 16.527 8.778 16.408 8.946 Q 16.289 9.114 16.247 9.114 Q 16.065 9.114 15.918 9.016 Q 15.771 8.918 15.701 8.694 Q 15.589 8.456 15.701 8.029 Q 15.813 7.602 15.953 6.916 Q 16.009 6.706 16.023 6.608 Q 16.037 6.51 16.072 6.405 Q 16.107 6.3 16.198 6.076 Q 16.289 5.852 16.485 5.404 Q 16.583 5.138 16.604 5.005 Q 16.625 4.873 16.625 4.817 Q 16.625 4.676 16.702 4.578 Q 16.779 4.48 16.891 4.438 Q 17.003 4.396 17.101 4.424 Q 17.255 4.452 17.374 4.578 Q 17.493 4.704 17.507 4.928 Q 17.521 5.096 17.479 5.229 Q 17.437 5.362 17.395 5.474 L 17.241 5.852 Q 17.171 6.006 17.059 6.3 Q 16.947 6.594 16.863 6.839 Q 16.779 7.084 16.779 7.126 Q 16.793 7.168 16.877 7.105 Q 16.961 7.042 17.094 6.923 Q 17.227 6.804 17.367 6.692 Q 17.661 6.412 18.032 6.153 Q 18.403 5.894 18.739 5.712 Q 19.075 5.53 19.257 5.474 Q 19.495 5.474 19.586 5.558 Q 19.677 5.642 19.901 5.866 Q 19.999 5.964 20.013 6.118 Q 20.027 6.272 19.999 6.412 Q 19.985 6.468 19.915 6.685 Q 19.845 6.902 19.782 7.098 L 19.719 7.294 L 19.88 7.154 Q 20.041 7.014 20.237 6.853 Q 20.433 6.692 20.531 6.608 Q 21.077 6.188 21.483 6.076 Q 21.889 5.964 22.141 6.37 Q 22.309 6.524 22.316 6.706 Q 22.323 6.888 22.323 7.336 Q 22.337 7.518 22.351 7.77 Q 22.365 8.022 22.386 8.225 Q 22.407 8.428 22.435 8.47 Q 22.477 8.526 22.596 8.561 Q 22.715 8.596 22.911 8.624 Q 23.121 8.652 23.163 8.806 Q 23.205 8.96 22.981 9.1 Q 22.771 9.226 22.519 9.212 Q 22.267 9.198 22.071 9.128 Q 22.001 9.1 21.861 8.988 Q 21.721 8.876 21.623 8.603 Q 21.525 8.33 21.525 7.84 Q 21.539 7.42 21.546 7.182 Q 21.553 6.944 21.441 6.944 Q 21.329 6.944 21.014 7.161 Q 20.699 7.378 20.293 7.742 Q 19.887 8.106 19.467 8.554 Q 19.327 8.708 19.194 8.841 Q 19.061 8.974 18.935 9.009 Q 18.809 9.044 18.641 8.918 Z M 46.613 8.288 L 46.641 7.994 L 46.095 8.428 Q 45.619 8.848 45.178 9.03 Q 44.737 9.212 44.401 9.212 Q 44.247 9.184 44.093 9.1 Q 43.939 9.016 43.82 8.89 Q 43.701 8.764 43.631 8.624 Q 43.547 8.428 43.582 8.092 Q 43.617 7.756 43.75 7.357 Q 43.883 6.958 44.086 6.573 Q 44.289 6.188 44.555 5.894 Q 45.017 5.194 45.549 5.04 Q 46.081 4.886 46.599 5.194 Q 46.963 5.348 47.054 5.334 Q 47.145 5.32 47.215 5.012 Q 47.271 4.788 47.327 4.557 Q 47.383 4.326 47.509 3.934 Q 47.859 2.87 48.118 2.268 Q 48.377 1.666 48.587 1.218 Q 48.741 0.896 48.846 0.819 Q 48.951 0.742 49.063 0.756 Q 49.217 0.756 49.343 0.868 Q 49.469 0.98 49.539 1.176 Q 49.595 1.302 49.588 1.393 Q 49.581 1.484 49.497 1.638 Q 49.315 1.974 49.07 2.527 Q 48.825 3.08 48.58 3.738 Q 48.335 4.396 48.125 5.04 Q 47.915 5.684 47.775 6.174 Q 47.691 6.482 47.628 6.958 Q 47.565 7.434 47.523 7.931 Q 47.481 8.428 47.474 8.813 Q 47.467 9.198 47.495 9.31 Q 47.579 9.59 47.572 9.73 Q 47.565 9.87 47.495 9.919 Q 47.425 9.968 47.271 9.982 Q 47.089 10.024 46.97 9.933 Q 46.851 9.842 46.795 9.674 Q 46.683 9.352 46.634 8.967 Q 46.585 8.582 46.613 8.288 Z M 26.439 12.852 Q 26.383 12.852 26.299 12.859 Q 26.215 12.866 26.145 12.74 Q 26.089 12.67 26.082 12.53 Q 26.075 12.39 26.145 12.026 Q 26.215 11.788 26.257 11.557 Q 26.299 11.326 26.299 11.214 Q 26.299 11.158 26.334 10.997 Q 26.369 10.836 26.369 10.766 Q 26.439 10.654 26.481 10.458 Q 26.523 10.262 26.523 10.108 Q 26.523 9.94 26.691 9.8 Q 26.691 9.688 26.74 9.52 Q 26.789 9.352 26.789 9.296 Q 26.831 9.1 26.978 8.603 Q 27.125 8.106 27.342 7.476 Q 27.559 6.846 27.769 6.244 Q 27.979 5.642 28.147 5.222 Q 28.315 4.83 28.378 4.543 Q 28.441 4.256 28.441 4.116 Q 28.441 4.06 28.469 4.025 Q 28.497 3.99 28.595 3.878 Q 28.735 3.738 28.84 3.794 Q 28.945 3.85 29.099 3.962 Q 29.211 4.144 29.26 4.27 Q 29.309 4.396 29.253 4.704 Q 29.253 4.914 29.183 5.068 Q 29.113 5.222 29.057 5.299 Q 29.001 5.376 29.029 5.362 Q 29.603 5.096 30.044 5.075 Q 30.485 5.054 30.786 5.229 Q 31.087 5.404 31.241 5.712 Q 31.395 6.02 31.395 6.426 Q 31.395 6.594 31.325 6.825 Q 31.255 7.056 31.15 7.245 Q 31.045 7.434 30.961 7.518 Q 30.905 7.518 30.849 7.609 Q 30.793 7.7 30.737 7.812 Q 30.625 7.952 30.38 8.127 Q 30.135 8.302 29.897 8.407 Q 29.659 8.512 29.547 8.47 L 29.512 8.477 Q 29.477 8.484 29.477 8.554 Q 29.477 8.582 29.253 8.673 Q 29.029 8.764 28.735 8.841 Q 28.441 8.918 28.217 8.918 Q 27.923 8.918 27.797 8.806 Q 27.769 8.834 27.734 8.89 Q 27.699 8.946 27.699 8.988 Q 27.699 9.072 27.636 9.303 Q 27.573 9.534 27.489 9.744 Q 27.405 9.954 27.335 9.954 L 27.307 9.996 Q 27.279 10.038 27.335 10.108 L 27.328 10.269 Q 27.321 10.43 27.251 10.542 Q 27.251 10.654 27.209 10.878 Q 27.167 11.102 27.111 11.214 Q 27.111 11.382 27.062 11.543 Q 27.013 11.704 26.957 11.704 Q 26.901 11.718 26.887 11.879 Q 26.873 12.04 26.873 12.11 Q 26.859 12.46 26.733 12.656 Q 26.607 12.852 26.439 12.852 Z M 38.129 9.226 Q 37.835 9.478 37.45 9.52 Q 37.065 9.562 36.701 9.401 Q 36.337 9.24 36.099 8.904 Q 35.861 8.596 35.791 8.197 Q 35.721 7.798 35.777 7.154 Q 35.819 6.608 36.127 6.055 Q 36.435 5.502 36.876 5.068 Q 37.317 4.634 37.751 4.466 Q 37.961 4.326 38.108 4.333 Q 38.255 4.34 38.563 4.368 Q 38.885 4.41 39.046 4.494 Q 39.207 4.578 39.305 4.718 Q 39.515 4.928 39.585 5.131 Q 39.655 5.334 39.655 5.53 Q 39.599 5.838 39.242 6.279 Q 38.885 6.72 38.311 7 Q 38.003 7.098 37.639 7.084 Q 37.275 7.07 37.037 6.902 Q 36.771 6.79 36.687 6.937 Q 36.603 7.084 36.533 7.644 Q 36.477 8.176 36.617 8.421 Q 36.757 8.666 36.995 8.708 Q 37.275 8.764 37.436 8.785 Q 37.597 8.806 37.835 8.666 Q 38.059 8.526 38.115 8.505 Q 38.171 8.484 38.206 8.449 L 38.381 8.274 Q 38.479 8.176 38.535 8.127 Q 38.591 8.078 38.661 8.078 Q 38.731 8.078 38.787 8.141 Q 38.843 8.204 38.899 8.232 Q 39.039 8.232 38.962 8.4 Q 38.885 8.568 38.661 8.799 Q 38.437 9.03 38.129 9.226 Z M 54.957 9.226 Q 54.663 9.478 54.278 9.52 Q 53.893 9.562 53.529 9.401 Q 53.165 9.24 52.927 8.904 Q 52.689 8.596 52.619 8.197 Q 52.549 7.798 52.605 7.154 Q 52.647 6.608 52.955 6.055 Q 53.263 5.502 53.704 5.068 Q 54.145 4.634 54.579 4.466 Q 54.789 4.326 54.936 4.333 Q 55.083 4.34 55.391 4.368 Q 55.713 4.41 55.874 4.494 Q 56.035 4.578 56.133 4.718 Q 56.343 4.928 56.413 5.131 Q 56.483 5.334 56.483 5.53 Q 56.427 5.838 56.07 6.279 Q 55.713 6.72 55.139 7 Q 54.831 7.098 54.467 7.084 Q 54.103 7.07 53.865 6.902 Q 53.599 6.79 53.515 6.937 Q 53.431 7.084 53.361 7.644 Q 53.305 8.176 53.445 8.421 Q 53.585 8.666 53.823 8.708 Q 54.103 8.764 54.264 8.785 Q 54.425 8.806 54.663 8.666 Q 54.887 8.526 54.943 8.505 Q 54.999 8.484 55.034 8.449 L 55.209 8.274 Q 55.307 8.176 55.363 8.127 Q 55.419 8.078 55.489 8.078 Q 55.559 8.078 55.615 8.141 Q 55.671 8.204 55.727 8.232 Q 55.867 8.232 55.79 8.4 Q 55.713 8.568 55.489 8.799 Q 55.265 9.03 54.957 9.226 Z M 9.905 9.268 Q 9.793 9.156 9.744 8.988 Q 9.695 8.82 9.709 8.652 Q 9.723 8.484 9.779 8.372 Q 9.779 8.26 9.814 8.197 Q 9.849 8.134 9.835 8.078 Q 9.821 8.022 9.863 7.882 Q 9.905 7.742 9.947 7.616 Q 10.045 7.392 10.157 7.077 Q 10.269 6.762 10.367 6.454 Q 10.465 6.146 10.535 5.922 Q 10.605 5.698 10.619 5.642 Q 10.619 5.474 10.843 5.46 Q 11.011 5.404 11.095 5.453 Q 11.179 5.502 11.319 5.726 Q 11.431 5.838 11.403 6.062 Q 11.375 6.286 11.221 6.622 Q 11.165 6.734 11.088 6.944 Q 11.011 7.154 10.983 7.322 Q 10.927 7.434 10.85 7.637 Q 10.773 7.84 10.717 8.022 Q 10.689 8.092 10.661 8.225 Q 10.633 8.358 10.591 8.505 Q 10.549 8.652 10.479 8.764 Q 10.353 9.338 10.248 9.436 Q 10.143 9.534 9.905 9.268 Z M 44.905 8.428 Q 45.101 8.386 45.29 8.274 Q 45.479 8.162 45.689 8.008 Q 46.109 7.686 46.417 7.42 Q 46.725 7.154 46.823 6.608 Q 46.851 6.342 46.774 6.181 Q 46.697 6.02 46.529 5.88 Q 46.361 5.768 46.074 5.789 Q 45.787 5.81 45.479 6.09 Q 45.143 6.398 44.828 6.916 Q 44.513 7.434 44.359 8.19 Q 44.331 8.33 44.443 8.414 Q 44.555 8.498 44.905 8.428 Z M 28.133 8.176 Q 28.245 8.176 28.595 8.078 Q 28.945 7.98 29.316 7.833 Q 29.687 7.686 29.869 7.532 Q 30.233 7.21 30.436 6.797 Q 30.639 6.384 30.401 6.006 Q 30.289 5.81 29.995 5.845 Q 29.701 5.88 29.351 6.076 Q 29.001 6.272 28.693 6.566 Q 28.525 6.748 28.385 7.014 Q 28.245 7.28 28.154 7.546 Q 28.063 7.812 28.049 7.994 Q 28.035 8.176 28.133 8.176 Z M 38.115 6.258 Q 38.269 6.188 38.437 6.055 Q 38.605 5.922 38.724 5.761 Q 38.843 5.6 38.843 5.488 Q 38.843 5.292 38.661 5.159 Q 38.479 5.026 38.115 5.124 Q 37.961 5.166 37.765 5.327 Q 37.569 5.488 37.394 5.684 Q 37.219 5.88 37.114 6.034 Q 37.009 6.188 37.037 6.216 Q 37.079 6.286 37.275 6.321 Q 37.471 6.356 37.716 6.342 Q 37.961 6.328 38.115 6.258 Z M 54.943 6.258 Q 55.097 6.188 55.265 6.055 Q 55.433 5.922 55.552 5.761 Q 55.671 5.6 55.671 5.488 Q 55.671 5.292 55.489 5.159 Q 55.307 5.026 54.943 5.124 Q 54.789 5.166 54.593 5.327 Q 54.397 5.488 54.222 5.684 Q 54.047 5.88 53.942 6.034 Q 53.837 6.188 53.865 6.216 Q 53.907 6.286 54.103 6.321 Q 54.299 6.356 54.544 6.342 Q 54.789 6.328 54.943 6.258 Z M 11.263 3.584 Q 11.193 3.514 11.137 3.381 Q 11.081 3.248 11.067 3.129 Q 11.053 3.01 11.095 3.01 Q 11.207 2.996 11.361 2.772 Q 11.515 2.548 11.487 2.38 Q 11.487 2.324 11.529 2.275 Q 11.571 2.226 11.627 2.212 Q 11.795 2.1 11.956 2.177 Q 12.117 2.254 12.257 2.478 Q 12.383 2.744 12.327 2.919 Q 12.271 3.094 12.019 3.402 Q 11.809 3.682 11.634 3.71 Q 11.459 3.738 11.263 3.584 Z" vector-effect="non-scaling-stroke"/></g>
</svg>