<svg xmlns="http://www.w3.org/2000/svg" viewBox="0 0 210 39">
  <g id="svgGroup" fill="#00E1FF" fill-rule="nonzero" stroke-linecap="round">
    <path d="M 14.94 16.605 L 12.69 17.1 A 592.831 592.831 0 0 1 10.409 17.582 Q 9.02 17.872 7.83 18.113 A 23.986 23.986 0 0 1 6.066 18.405 Q 5.189 18.515 4.406 18.535 A 13.535 13.535 0 0 1 4.05 18.54 A 9.927 9.927 0 0 1 2.928 18.481 Q 2.392 18.42 1.948 18.296 A 3.879 3.879 0 0 1 1.058 17.933 Q 0 17.325 0 15.84 Q 0 15.337 0.15 14.683 A 9.133 9.133 0 0 1 0.27 14.22 Q 1.133 11.371 4.772 8.19 A 30.532 30.532 0 0 1 5.085 7.92 A 34.195 34.195 0 0 1 10.214 4.344 A 38.371 38.371 0 0 1 11.025 3.893 A 38.163 38.163 0 0 1 17.139 1.227 A 35.142 35.142 0 0 1 17.663 1.058 Q 21.015 0 23.94 0 Q 25.636 0 26.808 0.563 A 4.285 4.285 0 0 1 27.518 0.99 A 3.139 3.139 0 0 1 28.824 3.268 A 4.079 4.079 0 0 1 28.845 3.69 A 5.117 5.117 0 0 1 28.581 5.269 Q 28.3 6.137 27.72 7.065 Q 27.405 7.515 27.18 7.515 Q 27.104 7.515 27.028 7.403 A 0.704 0.704 0 0 1 27 7.358 Q 26.91 7.2 26.91 7.02 A 0.3 0.3 0 0 1 26.911 6.994 Q 26.915 6.949 26.931 6.87 A 2.924 2.924 0 0 1 26.933 6.863 Q 26.953 6.762 26.991 6.607 A 11.844 11.844 0 0 1 27 6.57 A 7.196 7.196 0 0 0 27.291 5.384 A 5.837 5.837 0 0 0 27.36 4.5 A 3.514 3.514 0 0 0 27.246 3.578 A 2.43 2.43 0 0 0 26.303 2.205 Q 25.245 1.44 23.265 1.62 Q 20.572 1.9 17.28 3.077 A 42.204 42.204 0 0 0 15.345 3.825 Q 12.33 5.085 9.653 6.795 A 30.156 30.156 0 0 0 6.918 8.754 A 23.671 23.671 0 0 0 5.063 10.418 Q 3.418 12.062 2.655 13.723 A 7.902 7.902 0 0 0 2.43 14.265 A 1.652 1.652 0 0 0 2.285 14.713 A 2.291 2.291 0 0 0 2.25 15.12 A 1.442 1.442 0 0 0 3.139 16.47 Q 3.83 16.82 5.058 16.898 A 11.834 11.834 0 0 0 5.805 16.92 Q 7.515 16.92 9.563 16.56 A 160.362 160.362 0 0 0 11.19 16.265 Q 11.906 16.131 12.686 15.98 A 277.749 277.749 0 0 0 14.31 15.66 L 15.885 15.345 A 9.735 9.735 0 0 1 17.22 15.213 A 8.793 8.793 0 0 1 17.46 15.21 A 5.756 5.756 0 0 1 18.381 15.279 Q 18.864 15.358 19.258 15.525 A 2.849 2.849 0 0 1 19.755 15.795 Q 20.564 16.348 20.608 17.304 A 2.42 2.42 0 0 1 20.61 17.415 Q 20.61 18.36 19.8 19.665 Q 19.035 20.88 18 21.983 A 23.845 23.845 0 0 1 16.093 23.795 A 26.767 26.767 0 0 1 15.705 24.12 Q 13.14 26.19 10.215 27.405 A 17.03 17.03 0 0 1 7.542 28.277 A 12.628 12.628 0 0 1 4.68 28.62 A 4.088 4.088 0 0 1 4.062 28.577 Q 3.388 28.473 2.993 28.125 Q 2.43 27.63 2.43 26.775 A 3.087 3.087 0 0 1 2.546 25.959 Q 2.643 25.606 2.82 25.232 A 5.73 5.73 0 0 1 2.925 25.02 A 5.941 5.941 0 0 1 3.797 23.785 A 7.301 7.301 0 0 1 4.32 23.265 Q 4.59 23.04 4.77 22.995 A 0.333 0.333 0 0 1 4.889 23.016 A 0.299 0.299 0 0 1 4.995 23.085 A 0.115 0.115 0 0 1 5.019 23.122 Q 5.034 23.159 5.038 23.218 A 0.668 0.668 0 0 1 5.04 23.265 Q 5.04 23.58 4.635 23.985 A 8.238 8.238 0 0 0 4.091 24.603 Q 3.375 25.512 3.375 26.19 A 1.077 1.077 0 0 0 3.588 26.828 A 1.627 1.627 0 0 0 3.825 27.09 Q 4.275 27.495 4.86 27.45 A 13.939 13.939 0 0 0 8.018 26.944 A 17.005 17.005 0 0 0 9.495 26.46 Q 11.88 25.56 13.95 23.963 A 15.005 15.005 0 0 0 17.155 20.616 A 14.187 14.187 0 0 0 17.37 20.295 Q 18.348 18.872 18.36 17.801 A 2.373 2.373 0 0 0 18.36 17.775 A 1.521 1.521 0 0 0 18.24 17.149 Q 17.949 16.498 16.946 16.398 A 3.91 3.91 0 0 0 16.56 16.38 A 3.535 3.535 0 0 0 16.267 16.393 Q 16.118 16.406 15.952 16.43 A 6.183 6.183 0 0 0 15.84 16.448 Q 15.435 16.515 14.94 16.605 Z" transform="translate(4.000000, 3.750000)" vector-effect="non-scaling-stroke" />
  </g>
<g transform="translate(37,2)" id="svgGroup" stroke-linecap="round" fill-rule="evenodd" font-size="9pt" stroke="#00E1FF" stroke-width="0.25mm" fill="#00E1FF" style="stroke:#00E1FF;stroke-width:0.25mm;fill:#00E1FF"><path d="M 40.86 15.732 L 40.86 26.712 L 39.06 26.712 L 39.06 15.876 Q 39.06 12.708 37.512 11.052 Q 35.964 9.396 33.192 9.396 Q 30.024 9.396 28.17 11.376 Q 26.316 13.356 26.316 16.704 L 26.316 26.712 L 24.516 26.712 L 24.516 15.876 Q 24.516 12.708 22.968 11.052 Q 21.42 9.396 18.648 9.396 Q 15.48 9.396 13.626 11.376 Q 11.772 13.356 11.772 16.704 L 11.772 26.712 L 9.972 26.712 L 9.972 7.92 L 11.7 7.92 L 11.7 11.952 Q 12.636 9.972 14.49 8.874 Q 16.344 7.776 18.9 7.776 Q 21.456 7.776 23.238 8.928 Q 25.02 10.08 25.776 12.312 Q 26.712 10.224 28.71 9 Q 30.708 7.776 33.372 7.776 Q 36.864 7.776 38.862 9.828 Q 40.86 11.88 40.86 15.732 Z M 108.972 0 L 110.772 0 L 110.772 26.712 L 109.008 26.712 L 109.008 22.284 Q 107.892 24.48 105.876 25.668 Q 103.86 26.856 101.304 26.856 Q 98.676 26.856 96.552 25.632 Q 94.428 24.408 93.222 22.248 Q 92.016 20.088 92.016 17.316 Q 92.016 14.544 93.222 12.366 Q 94.428 10.188 96.552 8.982 Q 98.676 7.776 101.304 7.776 Q 103.824 7.776 105.822 8.964 Q 107.82 10.152 108.972 12.276 L 108.972 0 Z M 50.076 22.428 L 50.076 33.696 L 48.276 33.696 L 48.276 7.92 L 50.004 7.92 L 50.004 12.348 Q 51.12 10.188 53.154 8.982 Q 55.188 7.776 57.708 7.776 Q 60.336 7.776 62.46 9 Q 64.584 10.224 65.79 12.384 Q 66.996 14.544 66.996 17.316 Q 66.996 20.088 65.79 22.266 Q 64.584 24.444 62.46 25.65 Q 60.336 26.856 57.708 26.856 Q 55.224 26.856 53.208 25.686 Q 51.192 24.516 50.076 22.428 Z M 86.292 22.608 L 87.336 23.796 Q 86.112 25.308 84.276 26.082 Q 82.44 26.856 80.244 26.856 Q 77.436 26.856 75.222 25.632 Q 73.008 24.408 71.766 22.248 Q 70.524 20.088 70.524 17.316 Q 70.524 14.544 71.694 12.384 Q 72.864 10.224 74.952 9 Q 77.04 7.776 79.668 7.776 Q 82.116 7.776 84.078 8.91 Q 86.04 10.044 87.21 12.042 Q 88.38 14.04 88.488 16.524 L 72.612 19.62 Q 73.296 22.212 75.348 23.724 Q 77.4 25.236 80.28 25.236 Q 82.116 25.236 83.682 24.57 Q 85.248 23.904 86.292 22.608 Z M 132.084 22.608 L 133.128 23.796 Q 131.904 25.308 130.068 26.082 Q 128.232 26.856 126.036 26.856 Q 123.228 26.856 121.014 25.632 Q 118.8 24.408 117.558 22.248 Q 116.316 20.088 116.316 17.316 Q 116.316 14.544 117.486 12.384 Q 118.656 10.224 120.744 9 Q 122.832 7.776 125.46 7.776 Q 127.908 7.776 129.87 8.91 Q 131.832 10.044 133.002 12.042 Q 134.172 14.04 134.28 16.524 L 118.404 19.62 Q 119.088 22.212 121.14 23.724 Q 123.192 25.236 126.072 25.236 Q 127.908 25.236 129.474 24.57 Q 131.04 23.904 132.084 22.608 Z M 57.6 25.236 Q 59.76 25.236 61.488 24.228 Q 63.216 23.22 64.206 21.42 Q 65.196 19.62 65.196 17.316 Q 65.196 15.012 64.206 13.212 Q 63.216 11.412 61.488 10.404 Q 59.76 9.396 57.6 9.396 Q 55.44 9.396 53.73 10.404 Q 52.02 11.412 51.03 13.212 Q 50.04 15.012 50.04 17.316 Q 50.04 19.62 51.03 21.42 Q 52.02 23.22 53.73 24.228 Q 55.44 25.236 57.6 25.236 Z M 101.412 25.236 Q 103.572 25.236 105.282 24.228 Q 106.992 23.22 107.982 21.42 Q 108.972 19.62 108.972 17.316 Q 108.972 15.012 107.982 13.212 Q 106.992 11.412 105.282 10.404 Q 103.572 9.396 101.412 9.396 Q 99.252 9.396 97.542 10.404 Q 95.832 11.412 94.842 13.212 Q 93.852 15.012 93.852 17.316 Q 93.852 19.62 94.842 21.42 Q 95.832 23.22 97.542 24.228 Q 99.252 25.236 101.412 25.236 Z M 0.576 26.712 L 0.576 7.92 L 2.376 7.92 L 2.376 26.712 L 0.576 26.712 Z M 72.36 18.288 L 86.688 15.48 Q 86.436 13.788 85.5 12.384 Q 84.564 10.98 83.052 10.17 Q 81.54 9.36 79.668 9.36 Q 77.544 9.36 75.852 10.35 Q 74.16 11.34 73.224 13.122 Q 72.288 14.904 72.288 17.172 Q 72.288 17.568 72.36 18.288 Z M 118.152 18.288 L 132.48 15.48 Q 132.228 13.788 131.292 12.384 Q 130.356 10.98 128.844 10.17 Q 127.332 9.36 125.46 9.36 Q 123.336 9.36 121.644 10.35 Q 119.952 11.34 119.016 13.122 Q 118.08 14.904 118.08 17.172 Q 118.08 17.568 118.152 18.288 Z M 1.476 3.348 Q 0.864 3.348 0.432 2.934 Q 0 2.52 0 1.908 Q 0 1.296 0.432 0.864 Q 0.864 0.432 1.476 0.432 Q 2.088 0.432 2.52 0.846 Q 2.952 1.26 2.952 1.872 Q 2.952 2.484 2.52 2.916 Q 2.088 3.348 1.476 3.348 Z" vector-effect="non-scaling-stroke"/></g>
  <circle id="c1" cx="2" cy="2" r="2" fill="red" transform="translate(36.45500, 1.85)" />
</svg>