<svg viewBox="0 0 204 37" xmlns="http://www.w3.org/2000/svg" class="text-gray-700 dark:text-white fill-current">
                        <defs>
                            <radialGradient cx="-4.619%" cy="6.646%" fx="-4.619%" fy="6.646%" r="101.342%" gradientTransform="matrix(.8299 .53351 -.5579 .79363 .03 .038)" id="a">
                                <stop stop-color="#00FFB4" offset="0%"></stop>
                                <stop stop-color="#00E1FF" offset="100%"></stop>
                            </radialGradient>
                        </defs>
                        <circle r="18" cx="19" cy="18" fill="url(#a)" />
<g id="svgGroup" stroke-linecap="round" fill-rule="evenodd" font-size="9pt" stroke="#ffffff" stroke-width="0.25mm" fill="#ffffff" style="stroke:#ffffff;stroke-width:0.25mm;fill:#ffffff"><path transform="translate(5.000000, 0.000000)" d="M 12.42 34.065 L 11.43 34.065 Q 11.267 34.024 11.085 34.057 A 1.009 1.009 0 0 0 11.048 34.065 A 0.617 0.617 0 0 1 10.931 34.08 Q 10.923 34.08 10.915 34.08 A 0.552 0.552 0 0 1 10.665 34.02 A 0.205 0.205 0 0 0 10.619 33.986 Q 10.582 33.966 10.53 33.953 A 0.859 0.859 0 0 1 10.384 33.901 A 0.979 0.979 0 0 1 10.35 33.885 L 10.125 33.84 Q 9.996 33.866 9.875 33.866 A 1.037 1.037 0 0 1 9.315 33.705 A 3.375 3.375 0 0 1 9.805 33.661 A 3.748 3.748 0 0 1 9.878 33.66 L 10.485 33.66 A 5.381 5.381 0 0 0 10.634 33.621 Q 10.702 33.602 10.761 33.583 A 3.03 3.03 0 0 0 10.8 33.57 A 0.161 0.161 0 0 0 10.892 33.488 Q 10.935 33.407 10.935 33.255 L 11.61 33.255 L 11.88 33.165 Q 11.996 33.126 12.145 33.088 A 5.999 5.999 0 0 1 12.195 33.075 A 0.226 0.226 0 0 0 12.277 33.061 Q 12.407 33.011 12.377 32.775 A 0.874 0.874 0 0 0 12.375 32.76 Q 12.195 32.76 12.015 32.738 A 0.413 0.413 0 0 1 11.798 32.64 A 0.625 0.625 0 0 1 11.7 32.535 L 11.588 32.535 A 0.217 0.217 0 0 0 11.525 32.543 A 0.152 0.152 0 0 0 11.43 32.625 A 0.557 0.557 0 0 1 11.264 32.742 Q 11.144 32.795 11.003 32.783 Q 10.755 32.76 10.53 32.76 A 0.567 0.567 0 0 0 10.353 32.73 Q 10.306 32.73 10.26 32.738 Q 10.125 32.76 9.99 32.76 A 2.502 2.502 0 0 1 9.842 32.828 Q 9.759 32.863 9.662 32.898 A 5.113 5.113 0 0 1 9.54 32.94 A 1.78 1.78 0 0 1 9.436 32.937 Q 9.293 32.929 9.225 32.895 A 0.248 0.248 0 0 0 9.035 32.793 Q 8.953 32.787 8.848 32.822 A 0.922 0.922 0 0 0 8.775 32.85 A 5.386 5.386 0 0 0 8.711 32.757 Q 8.616 32.619 8.561 32.564 A 0.225 0.225 0 0 0 8.528 32.535 A 0.105 0.105 0 0 0 8.498 32.522 Q 8.422 32.5 8.233 32.528 A 2.446 2.446 0 0 0 8.19 32.535 A 2.024 2.024 0 0 1 7.856 32.617 Q 7.633 32.651 7.425 32.625 Q 7.336 32.536 7.181 32.579 A 0.486 0.486 0 0 0 7.178 32.58 Q 7.02 32.625 6.885 32.67 A 0.259 0.259 0 0 0 6.963 32.766 Q 7.046 32.826 7.18 32.811 A 0.591 0.591 0 0 0 7.223 32.805 Q 7.47 32.76 7.47 33.075 L 7.448 33.098 Q 7.429 33.116 7.395 33.119 A 0.158 0.158 0 0 1 7.38 33.12 Q 6.93 33.075 6.458 33.075 L 5.49 33.075 A 5.305 5.305 0 0 1 5.035 32.979 A 4.819 4.819 0 0 1 4.973 32.963 A 5.177 5.177 0 0 0 4.522 32.862 A 5.714 5.714 0 0 0 4.455 32.85 A 0.07 0.07 0 0 1 4.417 32.839 Q 4.399 32.828 4.388 32.805 A 0.097 0.097 0 0 0 4.372 32.782 A 0.068 0.068 0 0 0 4.32 32.76 A 2.562 2.562 0 0 0 4.181 32.667 Q 3.971 32.537 3.851 32.535 A 0.225 0.225 0 0 0 3.848 32.535 A 0.387 0.387 0 0 0 3.744 32.551 Q 3.61 32.588 3.42 32.715 Q 2.88 32.445 2.43 32.063 Q 1.98 31.68 1.53 31.32 A 1.213 1.213 0 0 1 1.446 31.226 Q 1.404 31.175 1.363 31.114 A 2.058 2.058 0 0 1 1.35 31.095 A 0.5 0.5 0 0 0 1.259 30.991 A 0.4 0.4 0 0 0 1.125 30.915 Q 0.945 30.78 0.923 30.6 Q 0.9 30.42 0.945 30.24 A 0.278 0.278 0 0 0 0.962 30.2 Q 1.009 30.05 0.81 29.97 A 1.379 1.379 0 0 1 0.562 29.704 A 1.162 1.162 0 0 1 0.428 29.453 Q 0.315 29.16 0.225 28.845 Q 0.18 28.71 0.113 28.598 Q 0.045 28.485 0 28.35 L 0 27.945 A 0.332 0.332 0 0 1 0.005 27.883 Q 0.037 27.717 0.263 27.827 A 0.936 0.936 0 0 1 0.315 27.855 Q 0.675 27.9 0.968 28.148 Q 1.26 28.395 1.575 28.665 Q 1.702 28.707 1.709 29.026 A 1.766 1.766 0 0 1 1.71 29.07 A 0.513 0.513 0 0 0 1.964 29.447 A 0.862 0.862 0 0 0 2.115 29.52 A 0.162 0.162 0 0 1 2.176 29.533 Q 2.247 29.562 2.34 29.655 A 2.516 2.516 0 0 0 2.962 29.96 A 2.171 2.171 0 0 0 3.465 30.06 Q 3.87 30.15 4.275 30.263 Q 4.68 30.375 5.085 30.42 A 1.238 1.238 0 0 1 5.394 30.524 A 1.121 1.121 0 0 1 5.49 30.578 A 0.518 0.518 0 0 0 5.77 30.658 Q 5.819 30.658 5.871 30.649 A 0.705 0.705 0 0 0 5.895 30.645 L 5.49 31.005 A 0.664 0.664 0 0 0 5.559 31.117 Q 5.667 31.254 5.816 31.254 A 0.342 0.342 0 0 0 5.85 31.253 Q 6.075 31.23 6.3 31.23 Q 6.255 31.41 6.255 31.59 A 0.766 0.766 0 0 1 6.202 31.866 A 0.941 0.941 0 0 1 6.165 31.95 A 0.294 0.294 0 0 1 6.133 32.046 Q 6.053 32.19 5.802 32.139 A 0.917 0.917 0 0 1 5.76 32.13 A 0.621 0.621 0 0 0 5.702 32.095 Q 5.605 32.045 5.535 32.063 A 0.66 0.66 0 0 1 5.461 32.076 Q 5.394 32.085 5.31 32.085 Q 5.013 32.085 4.916 32.005 A 0.155 0.155 0 0 1 4.905 31.995 Q 4.41 31.86 4.005 32.085 L 4.05 32.13 Q 4.275 32.175 4.5 32.243 Q 4.725 32.31 4.95 32.31 L 5.355 32.31 Q 5.916 32.569 6.559 32.456 A 2.46 2.46 0 0 0 6.615 32.445 A 3.965 3.965 0 0 1 7.205 32.346 A 4.556 4.556 0 0 1 7.38 32.333 A 18.492 18.492 0 0 0 7.958 32.291 A 21.744 21.744 0 0 0 8.235 32.265 Q 8.37 32.265 8.505 32.288 A 0.392 0.392 0 0 1 8.632 32.333 Q 8.68 32.36 8.728 32.401 A 0.822 0.822 0 0 1 8.775 32.445 A 0.065 0.065 0 0 0 8.811 32.502 Q 8.86 32.532 8.975 32.535 A 1.032 1.032 0 0 0 9 32.535 L 9.045 32.468 Q 9.09 32.4 9.09 32.31 L 9.09 32.175 Q 10.035 32.175 11.025 31.905 A 1.754 1.754 0 0 0 11.44 31.667 A 1.951 1.951 0 0 0 11.453 31.658 Q 11.655 31.5 11.835 31.365 A 3.679 3.679 0 0 0 11.804 31.224 Q 11.738 30.95 11.672 30.919 A 0.04 0.04 0 0 0 11.655 30.915 A 0.156 0.156 0 0 0 11.606 30.925 Q 11.498 30.963 11.254 31.137 A 5.738 5.738 0 0 0 11.25 31.14 Q 10.956 30.72 10.426 30.928 A 1.412 1.412 0 0 0 10.35 30.96 A 3.199 3.199 0 0 1 9.968 31.103 A 2.36 2.36 0 0 1 9.585 31.185 A 1.864 1.864 0 0 1 9.426 31.178 A 2.385 2.385 0 0 1 9.293 31.163 A 2.313 2.313 0 0 0 9.123 31.144 A 1.807 1.807 0 0 0 9 31.14 Q 8.964 30.961 9.1 30.853 A 0.456 0.456 0 0 1 9.18 30.803 Q 9.405 30.69 9.18 30.465 A 1.784 1.784 0 0 1 9.286 30.399 Q 9.361 30.357 9.428 30.33 A 1.512 1.512 0 0 1 9.513 30.299 Q 9.557 30.284 9.609 30.27 A 3.515 3.515 0 0 1 9.72 30.24 L 10.103 30.24 A 0.471 0.471 0 0 0 10.35 30.168 Q 10.419 30.126 10.485 30.06 A 0.762 0.762 0 0 0 10.376 29.983 Q 10.181 29.872 9.998 29.955 A 0.463 0.463 0 0 0 9.968 29.97 Q 9.782 30.071 9.609 30.071 A 0.579 0.579 0 0 1 9.495 30.06 A 0.665 0.665 0 0 0 9.454 29.823 A 0.598 0.598 0 0 0 9.315 29.61 Q 9.565 29.527 9.777 29.501 A 1.673 1.673 0 0 1 9.81 29.498 Q 10.035 29.475 10.26 29.43 Q 10.755 29.295 11.318 29.138 A 12.68 12.68 0 0 0 12.315 28.812 A 14.106 14.106 0 0 0 12.465 28.755 A 1.874 1.874 0 0 0 12.987 28.573 A 1.509 1.509 0 0 0 13.5 28.125 L 13.77 27.945 Q 14.31 27.9 14.175 27.405 Q 14.175 27.108 14.415 26.971 A 0.618 0.618 0 0 1 14.445 26.955 Q 14.805 26.73 15.12 26.46 Q 15.435 26.19 15.795 26.01 Q 16.02 25.875 16.11 25.628 A 6.065 6.065 0 0 0 16.171 25.451 Q 16.217 25.313 16.245 25.2 Q 16.309 25.073 16.327 24.878 A 1.819 1.819 0 0 0 16.335 24.705 A 0.868 0.868 0 0 1 16.214 24.653 Q 16.157 24.624 16.098 24.585 A 1.653 1.653 0 0 1 16.043 24.548 Q 15.888 24.437 15.669 24.521 A 0.71 0.71 0 0 0 15.66 24.525 A 0.576 0.576 0 0 1 15.491 24.497 Q 15.341 24.451 15.16 24.328 A 2.177 2.177 0 0 1 15.12 24.3 A 21.883 21.883 0 0 1 14.47 23.895 A 19.538 19.538 0 0 1 14.265 23.76 A 41.728 41.728 0 0 1 13.849 23.479 A 50.016 50.016 0 0 1 13.41 23.175 L 13.05 22.995 Q 12.87 22.905 12.645 22.815 A 4.738 4.738 0 0 1 11.535 21.992 A 5.638 5.638 0 0 1 11.25 21.69 A 7.035 7.035 0 0 1 10.063 20.688 A 7.784 7.784 0 0 1 9.99 20.61 Q 9.81 20.34 9.563 20.093 Q 9.315 19.845 9.09 19.665 A 2.289 2.289 0 0 1 8.978 19.544 A 2.757 2.757 0 0 1 8.91 19.463 A 3.308 3.308 0 0 1 8.798 19.313 A 3.952 3.952 0 0 1 8.73 19.215 Q 8.505 18.855 8.28 18.473 A 2.796 2.796 0 0 0 7.786 17.857 A 3.203 3.203 0 0 0 7.695 17.775 A 1.233 1.233 0 0 1 7.604 17.615 A 1.014 1.014 0 0 1 7.56 17.505 Q 7.52 17.385 7.586 17.23 A 0.739 0.739 0 0 1 7.605 17.19 A 0.867 0.867 0 0 1 7.39 17.098 A 0.646 0.646 0 0 1 7.155 16.853 A 4.23 4.23 0 0 0 7.028 16.635 Q 6.966 16.535 6.903 16.449 A 2.561 2.561 0 0 0 6.885 16.425 A 2.05 2.05 0 0 0 6.781 16.172 A 2.247 2.247 0 0 0 6.773 16.155 A 2.477 2.477 0 0 0 6.64 15.923 A 2.768 2.768 0 0 0 6.615 15.885 A 0.816 0.816 0 0 1 6.524 15.778 Q 6.386 15.581 6.462 15.384 A 0.472 0.472 0 0 1 6.48 15.345 Q 6.519 15.422 6.574 15.516 A 4.235 4.235 0 0 0 6.593 15.548 Q 6.66 15.66 6.705 15.75 A 0.969 0.969 0 0 1 6.944 15.778 A 0.822 0.822 0 0 1 7.11 15.84 Q 7.11 15.705 7.088 15.57 Q 7.065 15.435 7.065 15.3 Q 7.02 15.165 7.02 14.805 L 7.02 14.22 Q 7.065 13.77 7.11 13.298 Q 7.155 12.825 7.2 12.33 A 2.558 2.558 0 0 1 7.274 12.01 A 2.134 2.134 0 0 1 7.335 11.835 A 2.251 2.251 0 0 0 7.437 11.508 A 2.714 2.714 0 0 0 7.47 11.34 A 25.473 25.473 0 0 1 7.74 10.69 A 22.253 22.253 0 0 1 7.83 10.485 A 23.82 23.82 0 0 0 8.1 9.852 A 27.213 27.213 0 0 0 8.19 9.63 L 8.595 9 Q 8.685 8.865 8.798 8.753 A 0.569 0.569 0 0 0 8.92 8.567 A 0.747 0.747 0 0 0 8.955 8.46 Q 9 8.326 9.111 8.192 A 1.195 1.195 0 0 1 9.113 8.19 A 4.561 4.561 0 0 1 9.194 8.095 Q 9.234 8.049 9.272 8.01 A 2.317 2.317 0 0 1 9.315 7.965 A 11.086 11.086 0 0 1 9.579 7.751 A 9.009 9.009 0 0 1 9.833 7.56 A 9.009 9.009 0 0 0 10.086 7.369 A 11.086 11.086 0 0 0 10.35 7.155 Q 10.485 7.065 10.643 7.043 A 0.315 0.315 0 0 1 10.687 7.039 Q 10.774 7.039 10.853 7.089 A 0.464 0.464 0 0 1 10.935 7.155 A 1.946 1.946 0 0 0 10.532 7.555 A 1.585 1.585 0 0 0 10.26 8.145 L 10.305 8.235 A 0.406 0.406 0 0 1 10.36 8.189 Q 10.393 8.166 10.425 8.155 A 0.189 0.189 0 0 1 10.485 8.145 A 0.287 0.287 0 0 0 10.536 8.141 Q 10.589 8.131 10.62 8.1 A 2.289 2.289 0 0 0 10.733 7.979 A 2.757 2.757 0 0 0 10.8 7.898 Q 10.89 7.785 10.935 7.65 Q 11.006 7.65 11.035 7.622 A 0.062 0.062 0 0 0 11.048 7.605 L 11.07 7.56 A 1.119 1.119 0 0 0 11.141 7.558 Q 11.26 7.55 11.295 7.515 Q 11.565 7.38 11.813 7.223 Q 12.06 7.065 12.33 6.885 L 12.24 6.795 A 2.535 2.535 0 0 1 12.147 6.793 Q 12.013 6.788 11.957 6.768 A 0.088 0.088 0 0 1 11.925 6.75 Q 11.88 6.705 11.836 6.438 A 3.887 3.887 0 0 1 11.835 6.435 Q 11.796 6.358 11.741 6.264 A 4.235 4.235 0 0 0 11.723 6.233 Q 11.655 6.12 11.565 5.985 L 11.79 5.76 A 1.183 1.183 0 0 1 11.683 5.67 Q 11.336 5.339 11.781 5.071 A 1.298 1.298 0 0 1 11.835 5.04 Q 11.708 4.871 11.503 4.9 A 0.492 0.492 0 0 0 11.475 4.905 A 1.809 1.809 0 0 0 11.366 4.984 Q 11.311 5.026 11.266 5.069 A 1.052 1.052 0 0 0 11.25 5.085 A 0.542 0.542 0 0 1 11.086 5.196 A 0.665 0.665 0 0 1 11.025 5.22 A 0.141 0.141 0 0 1 10.969 5.254 Q 10.935 5.265 10.89 5.265 Q 10.815 5.265 10.741 5.327 A 0.448 0.448 0 0 0 10.71 5.355 Q 10.79 5.115 10.906 5.017 A 0.323 0.323 0 0 1 10.935 4.995 A 11.05 11.05 0 0 1 11.437 4.449 A 12.3 12.3 0 0 1 11.52 4.365 A 3.56 3.56 0 0 1 11.825 4.092 A 2.609 2.609 0 0 1 12.15 3.87 Q 12.51 3.555 12.893 3.308 A 68.004 68.004 0 0 0 13.579 2.857 A 75.016 75.016 0 0 0 13.68 2.79 Q 13.905 2.61 14.13 2.453 A 3.084 3.084 0 0 0 14.466 2.182 A 2.765 2.765 0 0 0 14.535 2.115 A 2.991 2.991 0 0 0 14.709 1.974 Q 14.81 1.885 14.918 1.778 L 15.3 1.395 A 0.07 0.07 0 0 1 15.311 1.357 Q 15.322 1.339 15.345 1.328 Q 15.383 1.308 15.421 1.241 A 0.582 0.582 0 0 0 15.435 1.215 A 4.561 4.561 0 0 0 14.89 1.387 A 4.062 4.062 0 0 0 14.76 1.44 Q 14.445 1.575 14.085 1.575 A 1.034 1.034 0 0 1 14.146 1.448 Q 14.217 1.322 14.31 1.26 L 15.075 0.99 A 3.383 3.383 0 0 1 15.204 0.929 Q 15.267 0.9 15.324 0.879 A 1.633 1.633 0 0 1 15.39 0.855 A 3.443 3.443 0 0 1 15.517 0.816 Q 15.582 0.797 15.655 0.778 A 5.999 5.999 0 0 1 15.705 0.765 Q 16.065 0.675 16.47 0.563 A 7.476 7.476 0 0 1 16.761 0.488 Q 16.993 0.433 17.19 0.405 A 2.558 2.558 0 0 1 17.418 0.269 A 2.3 2.3 0 0 1 17.46 0.248 A 2.477 2.477 0 0 0 17.692 0.115 A 2.768 2.768 0 0 0 17.73 0.09 A 0.761 0.761 0 0 1 17.856 0.032 Q 18.1 -0.053 18.315 0.09 Q 18.54 0.225 18.743 0.338 Q 18.945 0.45 19.035 0.675 Q 19.89 0.81 20.43 1.62 L 20.43 1.643 A 0.018 0.018 0 0 0 20.441 1.659 Q 20.45 1.664 20.465 1.665 A 0.152 0.152 0 0 0 20.475 1.665 L 21.195 2.385 Q 21.51 2.88 21.915 3.375 A 2.342 2.342 0 0 1 22.241 3.965 A 2.162 2.162 0 0 1 22.298 4.14 Q 22.41 4.545 22.545 4.905 Q 22.86 5.625 22.545 6.39 Q 22.545 6.48 22.523 6.57 Q 22.5 6.66 22.545 6.75 A 1.856 1.856 0 0 0 22.549 6.882 Q 22.559 7.017 22.59 7.11 A 0.181 0.181 0 0 1 22.599 7.167 Q 22.599 7.29 22.455 7.47 A 0.088 0.088 0 0 0 22.435 7.502 Q 22.416 7.553 22.433 7.65 A 2.1 2.1 0 0 1 22.445 7.737 Q 22.45 7.777 22.453 7.811 A 0.913 0.913 0 0 1 22.455 7.875 L 22.005 7.875 Q 21.631 7.917 21.833 8.227 A 0.973 0.973 0 0 0 21.87 8.28 Q 22.05 8.595 21.735 8.685 A 0.214 0.214 0 0 0 21.579 8.834 Q 21.555 8.902 21.555 9 A 0.557 0.557 0 0 1 21.555 9.002 Q 21.555 9.13 21.493 9.278 A 1.082 1.082 0 0 1 21.488 9.293 Q 21.42 9.45 21.375 9.63 Q 21.341 9.423 21.293 9.269 A 1.611 1.611 0 0 0 21.263 9.18 Q 21.195 9 21.15 8.82 A 0.182 0.182 0 0 0 21.146 8.779 Q 21.14 8.755 21.127 8.738 A 0.091 0.091 0 0 0 21.083 8.708 A 0.306 0.306 0 0 1 21.014 8.675 A 0.26 0.26 0 0 1 20.97 8.64 L 20.79 8.91 L 20.7 9.54 L 20.61 10.17 Q 20.565 10.62 20.543 11.07 A 1.422 1.422 0 0 1 20.34 11.726 A 1.848 1.848 0 0 1 20.205 11.925 Q 20.025 11.745 20.048 11.475 Q 20.07 11.205 19.98 10.935 Q 19.845 11.115 19.755 11.318 Q 19.665 11.52 19.53 11.655 Q 19.468 11.748 19.385 11.862 A 9.833 9.833 0 0 1 19.305 11.97 Q 19.177 12.14 18.929 12.23 A 1.229 1.229 0 0 1 18.9 12.24 A 3.303 3.303 0 0 1 18.859 11.879 A 2.844 2.844 0 0 1 18.855 11.723 A 1.145 1.145 0 0 0 18.838 11.519 A 0.826 0.826 0 0 0 18.765 11.295 A 1.509 1.509 0 0 0 18.757 11.129 Q 18.731 10.901 18.63 10.8 A 0.205 0.205 0 0 1 18.596 10.754 Q 18.576 10.717 18.563 10.665 Q 18.547 10.602 18.52 10.561 A 0.193 0.193 0 0 0 18.495 10.53 A 1.937 1.937 0 0 0 18.484 10.316 A 1.448 1.448 0 0 0 18.45 10.125 Q 18.328 10.166 18.169 10.316 A 1.894 1.894 0 0 0 18.135 10.35 A 0.192 0.192 0 0 0 18.122 10.281 A 0.235 0.235 0 0 0 18.113 10.26 L 18.09 10.215 Q 18.09 10.131 18.109 10.067 A 0.364 0.364 0 0 1 18.113 10.058 Q 18.131 10.001 18.134 9.896 A 1.437 1.437 0 0 0 18.135 9.855 A 0.493 0.493 0 0 1 17.989 9.919 Q 17.924 9.937 17.847 9.943 A 1.018 1.018 0 0 1 17.775 9.945 A 1.944 1.944 0 0 0 17.935 9.658 A 1.54 1.54 0 0 0 18.023 9.405 A 0.619 0.619 0 0 0 18.041 9.254 Q 18.041 9.049 17.91 8.82 A 0.329 0.329 0 0 0 17.879 8.856 Q 17.864 8.876 17.85 8.901 A 0.822 0.822 0 0 0 17.82 8.955 A 0.796 0.796 0 0 0 17.8 8.997 Q 17.783 9.038 17.777 9.067 A 0.127 0.127 0 0 0 17.775 9.09 L 17.73 9.09 Q 17.685 8.91 17.685 8.73 A 0.86 0.86 0 0 0 17.668 8.564 Q 17.652 8.483 17.621 8.395 A 1.632 1.632 0 0 0 17.595 8.325 L 17.28 8.325 A 0.501 0.501 0 0 0 17.168 8.339 Q 17.075 8.36 16.965 8.415 Q 16.207 8.529 15.64 8.738 A 4.363 4.363 0 0 0 15.435 8.82 Q 14.58 9.09 13.905 9.63 L 13.613 9.923 A 1.772 1.772 0 0 1 13.414 10.093 A 2.273 2.273 0 0 1 13.23 10.215 A 1.405 1.405 0 0 0 12.964 10.5 A 1.772 1.772 0 0 0 12.848 10.688 Q 12.69 10.98 12.465 11.205 Q 12.285 11.565 12.038 11.925 Q 11.79 12.285 11.565 12.645 Q 11.329 12.921 11.248 12.921 A 0.035 0.035 0 0 1 11.228 12.915 A 0.025 0.025 0 0 0 11.215 12.911 Q 11.151 12.911 11.07 13.275 A 0.508 0.508 0 0 0 11.056 13.366 Q 11.048 13.495 11.095 13.66 A 1.496 1.496 0 0 0 11.115 13.725 Q 11.205 13.995 11.25 14.265 Q 11.475 14.715 11.678 15.188 A 5.089 5.089 0 0 0 12.137 16.025 A 5.677 5.677 0 0 0 12.195 16.11 Q 12.735 16.74 13.298 17.348 Q 13.86 17.955 14.49 18.45 Q 14.94 18.81 15.413 19.148 Q 15.885 19.485 16.335 19.845 Q 16.785 20.115 17.213 20.385 Q 17.64 20.655 18.09 20.925 L 19.845 22.095 A 0.23 0.23 0 0 1 19.892 22.128 Q 19.977 22.203 20.115 22.41 Q 20.205 22.59 20.363 22.725 A 6.445 6.445 0 0 0 20.611 22.928 A 7.279 7.279 0 0 0 20.7 22.995 A 3.366 3.366 0 0 1 21.408 23.464 A 3.03 3.03 0 0 1 21.623 23.67 Q 22.005 24.075 22.32 24.57 Q 22.59 24.975 22.748 25.425 Q 22.905 25.875 23.22 26.235 A 0.088 0.088 0 0 1 23.24 26.267 Q 23.259 26.318 23.243 26.415 Q 23.22 26.55 23.265 26.685 A 0.304 0.304 0 0 1 23.353 26.697 A 0.259 0.259 0 0 1 23.423 26.73 A 0.223 0.223 0 0 0 23.48 26.757 Q 23.535 26.774 23.614 26.775 A 0.784 0.784 0 0 0 23.625 26.775 Q 23.625 26.913 23.612 27.156 A 19.302 19.302 0 0 1 23.603 27.315 Q 23.58 27.675 23.4 28.62 A 1.122 1.122 0 0 0 23.276 28.693 A 1.33 1.33 0 0 0 23.22 28.733 Q 23.13 28.8 23.04 28.89 A 3.581 3.581 0 0 0 23.044 29.074 Q 23.054 29.261 23.085 29.385 A 0.633 0.633 0 0 1 23.049 29.393 Q 22.95 29.412 22.908 29.381 A 0.07 0.07 0 0 1 22.883 29.34 A 0.198 0.198 0 0 0 22.785 29.213 A 0.273 0.273 0 0 0 22.77 29.205 Q 22.722 29.108 22.66 29.064 A 0.192 0.192 0 0 0 22.545 29.025 Q 22.214 29.108 22.263 29.266 A 0.189 0.189 0 0 0 22.275 29.295 Q 22.302 29.377 22.288 29.425 A 0.086 0.086 0 0 1 22.253 29.475 A 0.689 0.689 0 0 0 22.203 29.511 Q 22.154 29.551 22.095 29.61 A 2.541 2.541 0 0 0 21.671 29.955 Q 21.403 30.22 21.15 30.6 Q 21.015 30.915 20.768 31.118 Q 20.52 31.32 20.25 31.545 A 0.238 0.238 0 0 1 20.216 31.572 Q 20.181 31.597 20.126 31.621 A 1.036 1.036 0 0 1 20.093 31.635 A 0.633 0.633 0 0 1 19.911 31.677 A 0.763 0.763 0 0 1 19.845 31.68 Q 19.305 31.545 19.125 31.995 A 0.409 0.409 0 0 1 19.099 32.146 Q 19.056 32.255 18.942 32.317 A 0.528 0.528 0 0 1 18.855 32.355 A 0.142 0.142 0 0 0 18.793 32.368 Q 18.733 32.397 18.722 32.491 A 0.394 0.394 0 0 0 18.72 32.535 A 0.139 0.139 0 0 0 18.741 32.612 Q 18.757 32.637 18.786 32.656 A 0.221 0.221 0 0 0 18.81 32.67 Q 18.896 32.713 18.776 32.88 A 0.953 0.953 0 0 1 18.765 32.895 Q 18.72 32.76 18.72 32.535 Q 18.675 32.715 18.54 32.85 A 0.271 0.271 0 0 1 18.458 32.906 A 0.333 0.333 0 0 1 18.428 32.918 Q 18.36 32.94 18.27 33.03 L 18.18 33.03 A 0.548 0.548 0 0 1 18.074 33.102 Q 17.852 33.217 17.607 33.03 A 1.023 1.023 0 0 1 17.505 32.94 Q 17.325 32.985 17.19 33.008 A 1.068 1.068 0 0 0 17.095 33.028 Q 17.021 33.047 16.965 33.075 A 2.752 2.752 0 0 0 16.704 33.195 A 2.257 2.257 0 0 0 16.56 33.278 Q 16.38 33.39 16.2 33.48 Q 16.158 33.522 16.116 33.583 A 1.029 1.029 0 0 0 16.11 33.593 A 0.274 0.274 0 0 1 16.089 33.62 Q 16.054 33.66 16.02 33.66 Q 15.895 33.635 15.805 33.658 A 0.264 0.264 0 0 0 15.683 33.728 A 0.685 0.685 0 0 1 15.549 33.833 A 0.581 0.581 0 0 1 15.435 33.885 A 0.586 0.586 0 0 1 15.321 33.945 A 0.431 0.431 0 0 1 15.165 33.975 L 14.895 33.975 A 0.43 0.43 0 0 1 14.995 33.899 A 0.367 0.367 0 0 1 15.098 33.863 Q 15.21 33.84 15.21 33.66 A 2.068 2.068 0 0 0 15.136 33.632 Q 14.973 33.574 14.918 33.593 Q 14.852 33.614 14.68 33.871 A 4.684 4.684 0 0 0 14.67 33.885 Q 14.812 33.885 14.87 33.941 A 0.124 0.124 0 0 1 14.895 33.975 A 0.832 0.832 0 0 1 14.757 34.088 Q 14.65 34.156 14.536 34.174 A 0.521 0.521 0 0 1 14.513 34.178 A 4.678 4.678 0 0 0 14.251 34.214 A 5.589 5.589 0 0 0 14.085 34.245 L 13.815 34.335 L 13.545 34.425 Q 13.32 34.47 13.095 34.538 Q 12.87 34.605 12.645 34.605 A 0.601 0.601 0 0 0 12.8 34.495 A 0.562 0.562 0 0 0 12.803 34.493 A 0.6 0.6 0 0 1 12.959 34.38 Q 12.735 34.02 12.42 34.065 Z M 14.85 4.41 L 14.355 4.905 A 0.341 0.341 0 0 0 14.155 4.808 Q 14.093 4.8 14.022 4.808 A 0.74 0.74 0 0 0 13.973 4.815 A 0.31 0.31 0 0 1 13.936 4.82 Q 13.762 4.83 13.702 4.612 A 0.795 0.795 0 0 1 13.68 4.5 Q 13.275 4.59 12.96 4.748 A 1.427 1.427 0 0 0 12.508 5.107 A 1.725 1.725 0 0 0 12.42 5.22 A 0.601 0.601 0 0 1 12.31 5.375 A 0.562 0.562 0 0 1 12.308 5.378 L 12.15 5.535 A 0.67 0.67 0 0 0 12.234 5.576 Q 12.49 5.678 12.645 5.445 Q 12.713 5.411 12.794 5.351 A 1.749 1.749 0 0 0 12.848 5.31 Q 12.96 5.22 13.095 5.175 Q 13.229 5.399 13.007 5.4 A 0.46 0.46 0 0 1 13.005 5.4 A 0.294 0.294 0 0 0 12.909 5.432 Q 12.765 5.512 12.816 5.763 A 0.917 0.917 0 0 0 12.825 5.805 A 0.723 0.723 0 0 0 13.216 5.616 A 1.073 1.073 0 0 0 13.365 5.445 A 0.422 0.422 0 0 1 13.429 5.368 Q 13.598 5.213 13.86 5.4 A 0.542 0.542 0 0 0 14.024 5.511 A 0.665 0.665 0 0 0 14.085 5.535 A 1.061 1.061 0 0 1 14.262 5.613 A 1.301 1.301 0 0 1 14.355 5.67 Q 14.58 5.49 14.783 5.288 Q 14.985 5.085 15.255 5.04 A 0.479 0.479 0 0 0 15.386 4.975 Q 15.511 4.884 15.524 4.718 A 0.503 0.503 0 0 0 15.525 4.68 A 0.424 0.424 0 0 0 15.626 4.511 Q 15.66 4.41 15.66 4.275 A 0.601 0.601 0 0 0 15.55 4.12 A 0.562 0.562 0 0 0 15.548 4.118 A 0.6 0.6 0 0 1 15.435 3.961 A 0.955 0.955 0 0 1 15.509 3.856 Q 15.674 3.657 15.851 3.728 A 0.344 0.344 0 0 1 15.908 3.758 A 1.173 1.173 0 0 0 16.09 3.853 Q 16.201 3.899 16.307 3.911 A 0.662 0.662 0 0 0 16.38 3.915 L 16.47 3.645 A 1.769 1.769 0 0 1 16.51 3.537 Q 16.549 3.443 16.605 3.33 Q 16.47 3.33 16.38 3.308 Q 16.29 3.285 16.2 3.33 Q 15.975 3.375 15.75 3.443 Q 15.525 3.51 15.3 3.555 Q 15.12 3.6 15.03 3.69 Q 14.957 3.763 14.943 3.955 A 1.335 1.335 0 0 0 14.94 4.05 A 2.017 2.017 0 0 1 15.045 4.124 Q 15.194 4.238 15.226 4.32 A 0.134 0.134 0 0 1 15.233 4.343 A 0.109 0.109 0 0 1 15.235 4.364 Q 15.235 4.475 15.03 4.68 Q 14.94 4.59 14.85 4.41 Z M 12.24 31.365 Q 12.51 31.32 12.803 31.275 A 1.35 1.35 0 0 0 13.263 31.113 A 1.61 1.61 0 0 0 13.365 31.05 A 0.194 0.194 0 0 0 13.418 31.043 Q 13.478 31.026 13.494 30.965 A 0.199 0.199 0 0 0 13.5 30.915 A 0.215 0.215 0 0 0 13.437 30.762 A 0.283 0.283 0 0 0 13.433 30.758 L 13.32 30.645 A 0.383 0.383 0 0 0 13.182 30.671 A 0.47 0.47 0 0 0 13.14 30.69 A 0.433 0.433 0 0 1 13.039 30.726 A 0.368 0.368 0 0 1 12.96 30.735 Q 12.876 30.735 12.812 30.754 A 0.364 0.364 0 0 0 12.803 30.758 Q 12.739 30.779 12.656 30.78 A 0.702 0.702 0 0 1 12.645 30.78 A 1.459 1.459 0 0 0 12.58 30.772 Q 12.349 30.75 12.277 30.828 A 0.119 0.119 0 0 0 12.263 30.848 A 0.213 0.213 0 0 0 12.241 30.9 Q 12.203 31.036 12.24 31.365 Z M 6.12 13.68 Q 5.985 13.455 6.053 13.23 A 1.595 1.595 0 0 0 6.112 12.919 A 1.982 1.982 0 0 0 6.12 12.735 A 1.55 1.55 0 0 1 6.2 12.884 Q 6.263 13.022 6.278 13.14 Q 6.3 13.32 6.3 13.5 A 0.069 0.069 0 0 1 6.289 13.536 Q 6.273 13.563 6.233 13.59 A 0.904 0.904 0 0 0 6.178 13.629 Q 6.15 13.651 6.128 13.672 A 0.527 0.527 0 0 0 6.12 13.68 Z M 7.156 9.969 A 1.248 1.248 0 0 0 7.155 9.968 Q 7.11 9.901 7.066 9.811 A 1.723 1.723 0 0 1 7.065 9.81 L 7.335 9.63 A 2.075 2.075 0 0 1 7.337 9.629 Q 7.471 9.539 7.65 9.45 Q 7.59 9.692 7.529 9.873 A 2.991 2.991 0 0 1 7.47 10.035 Q 7.47 10.08 7.38 10.103 A 1.284 1.284 0 0 1 7.338 10.112 Q 7.279 10.125 7.245 10.125 Q 7.2 10.036 7.156 9.969 Z M 13.431 6.086 A 24.197 24.197 0 0 0 13.23 6.165 Q 13.455 5.805 13.523 5.693 A 0.109 0.109 0 0 1 13.56 5.655 Q 13.639 5.607 13.83 5.651 A 1.425 1.425 0 0 1 13.905 5.67 A 0.907 0.907 0 0 1 13.864 5.773 Q 13.831 5.842 13.79 5.892 A 0.364 0.364 0 0 1 13.635 6.008 A 14.403 14.403 0 0 0 13.611 6.017 Q 13.526 6.049 13.431 6.086 Z M 3.375 30.96 A 0.476 0.476 0 0 0 3.414 30.977 Q 3.541 31.027 3.588 30.943 A 0.166 0.166 0 0 0 3.6 30.915 Q 3.375 30.555 2.88 30.6 Q 2.88 30.819 3.051 30.868 A 0.307 0.307 0 0 0 3.06 30.87 A 5.381 5.381 0 0 1 3.209 30.909 Q 3.277 30.928 3.336 30.947 A 3.03 3.03 0 0 1 3.375 30.96 Z M 8.164 8.729 A 0.963 0.963 0 0 0 8.19 8.82 A 1.583 1.583 0 0 0 8.304 8.726 Q 8.405 8.635 8.471 8.539 A 0.706 0.706 0 0 0 8.595 8.235 A 1.054 1.054 0 0 0 8.496 8.247 Q 8.072 8.321 8.164 8.729 Z M 13.388 1.643 A 0.055 0.055 0 0 0 13.382 1.645 Q 13.311 1.678 13.095 1.98 A 2.274 2.274 0 0 0 13.098 1.979 Q 13.186 1.957 13.264 1.929 A 1.319 1.319 0 0 0 13.41 1.868 A 2.245 2.245 0 0 1 13.427 1.859 A 2.05 2.05 0 0 1 13.68 1.755 A 2.216 2.216 0 0 0 13.632 1.727 Q 13.448 1.622 13.388 1.643 Z M 19.278 32.725 A 0.728 0.728 0 0 0 19.26 32.895 A 2.054 2.054 0 0 1 19.378 32.785 A 1.607 1.607 0 0 1 19.53 32.67 A 1.047 1.047 0 0 0 19.533 32.668 Q 19.616 32.612 19.665 32.556 A 0.321 0.321 0 0 0 19.71 32.49 A 0.152 0.152 0 0 0 19.71 32.48 Q 19.709 32.465 19.704 32.456 A 0.018 0.018 0 0 0 19.688 32.445 L 19.665 32.445 Q 19.345 32.445 19.278 32.725 Z M 6.466 30.593 A 0.56 0.56 0 0 0 6.3 30.645 A 1.23 1.23 0 0 1 6.399 30.625 Q 6.549 30.6 6.75 30.6 A 1.17 1.17 0 0 0 6.681 30.591 Q 6.564 30.578 6.466 30.593 Z M 8.775 29.7 L 8.775 29.61 L 8.933 29.61 L 9.09 29.61 L 9.09 29.655 Q 9.006 29.655 8.942 29.674 A 0.364 0.364 0 0 0 8.933 29.678 Q 8.869 29.699 8.786 29.7 A 0.702 0.702 0 0 1 8.775 29.7 Z M 15.705 4.905 L 15.975 4.905 Q 15.885 4.86 15.885 4.815 A 0.115 0.115 0 0 1 15.848 4.839 Q 15.812 4.854 15.753 4.858 A 0.668 0.668 0 0 1 15.705 4.86 L 15.705 4.883 L 15.705 4.905 Z M 11.61 6.93 L 11.475 7.065 L 11.43 6.93 A 0.03 0.03 0 0 1 11.446 6.904 Q 11.477 6.885 11.565 6.885 L 11.588 6.908 L 11.61 6.93 Z" vector-effect="non-scaling-stroke"/></g>
                            <path transform="translate(50.000000, 7.000000)" d="M 28.896 20.048 L 25.396 20.048 L 25.396 6.356 L 28.812 6.356 L 28.812 9.1 L 28.504 9.1 A 5.025 5.025 0 0 1 29.102 7.971 A 4.438 4.438 0 0 1 29.512 7.476 Q 30.156 6.804 31.052 6.44 A 4.968 4.968 0 0 1 32.44 6.105 A 6.091 6.091 0 0 1 33.04 6.076 A 5.713 5.713 0 0 1 34.23 6.193 Q 35.022 6.362 35.632 6.772 A 3.57 3.57 0 0 1 35.756 6.86 Q 36.779 7.614 37.206 9.143 A 6.598 6.598 0 0 1 37.24 9.268 L 36.848 9.268 Q 37.408 7.784 38.696 6.93 A 5.145 5.145 0 0 1 41.25 6.089 A 6.336 6.336 0 0 1 41.664 6.076 Q 42.956 6.076 43.878 6.494 A 3.658 3.658 0 0 1 44.254 6.692 A 3.565 3.565 0 0 1 45.551 8.069 A 4.631 4.631 0 0 1 45.78 8.554 Q 46.284 9.8 46.284 11.704 L 46.284 20.048 L 42.784 20.048 L 42.784 11.844 Q 42.784 10.433 42.365 9.702 A 1.88 1.88 0 0 0 42.266 9.548 A 1.614 1.614 0 0 0 41.429 8.95 Q 41.036 8.82 40.516 8.82 Q 39.62 8.82 38.948 9.254 A 2.635 2.635 0 0 0 38.056 10.232 A 3.302 3.302 0 0 0 37.926 10.5 A 4.038 4.038 0 0 0 37.669 11.365 Q 37.593 11.774 37.579 12.241 A 7.218 7.218 0 0 0 37.576 12.46 L 37.576 20.048 L 34.076 20.048 L 34.076 11.844 Q 34.076 10.433 33.657 9.702 A 1.88 1.88 0 0 0 33.558 9.548 A 1.627 1.627 0 0 0 32.687 8.936 Q 32.316 8.82 31.836 8.82 A 3.286 3.286 0 0 0 31.053 8.909 A 2.533 2.533 0 0 0 30.254 9.254 A 2.635 2.635 0 0 0 29.414 10.163 A 3.339 3.339 0 0 0 29.246 10.5 A 4.038 4.038 0 0 0 28.989 11.365 Q 28.913 11.774 28.899 12.241 A 7.218 7.218 0 0 0 28.896 12.46 L 28.896 20.048 Z M 0 18.088 L 1.092 15.26 Q 2.016 15.904 3.038 16.366 Q 4.06 16.828 5.222 17.066 A 11.905 11.905 0 0 0 7.193 17.296 A 13.568 13.568 0 0 0 7.672 17.304 A 10.488 10.488 0 0 0 8.792 17.249 Q 10.16 17.101 10.892 16.562 A 2.64 2.64 0 0 0 11.523 15.92 A 2.222 2.222 0 0 0 11.9 14.644 A 2.253 2.253 0 0 0 11.835 14.089 A 1.768 1.768 0 0 0 11.592 13.538 A 1.84 1.84 0 0 0 11.247 13.158 Q 11.07 13.008 10.84 12.875 A 3.807 3.807 0 0 0 10.584 12.74 Q 9.884 12.404 8.736 12.18 L 5.656 11.536 A 11.559 11.559 0 0 1 4.057 11.086 Q 3.266 10.796 2.649 10.407 A 5.204 5.204 0 0 1 1.694 9.646 A 4.481 4.481 0 0 1 0.479 7.201 A 6.344 6.344 0 0 1 0.392 6.132 A 5.864 5.864 0 0 1 0.668 4.306 A 5.104 5.104 0 0 1 1.372 2.912 A 6.103 6.103 0 0 1 3.34 1.158 A 7.665 7.665 0 0 1 4.088 0.784 A 8.913 8.913 0 0 1 6.337 0.153 A 11.854 11.854 0 0 1 8.092 0.028 Q 9.436 0.028 10.682 0.294 A 10.101 10.101 0 0 1 12.441 0.835 A 8.966 8.966 0 0 1 12.978 1.078 A 7.943 7.943 0 0 1 14.348 1.93 A 7.001 7.001 0 0 1 14.812 2.324 L 13.72 5.012 Q 12.544 4.032 11.144 3.542 A 8.737 8.737 0 0 0 9.087 3.1 A 10.683 10.683 0 0 0 8.064 3.052 Q 6.776 3.052 5.852 3.416 A 3.802 3.802 0 0 0 5.138 3.783 A 2.783 2.783 0 0 0 4.438 4.438 A 2.476 2.476 0 0 0 3.956 5.772 A 3.123 3.123 0 0 0 3.948 5.992 Q 3.948 7 4.62 7.602 Q 5.219 8.138 6.573 8.464 A 11.114 11.114 0 0 0 6.916 8.54 L 9.968 9.184 Q 11.787 9.57 12.997 10.245 A 5.673 5.673 0 0 1 14.098 11.032 A 4.178 4.178 0 0 1 15.412 13.664 A 5.855 5.855 0 0 1 15.456 14.392 A 5.533 5.533 0 0 1 15.129 16.315 A 5.066 5.066 0 0 1 14.504 17.5 Q 13.552 18.844 11.802 19.586 Q 10.104 20.306 7.812 20.327 A 15.088 15.088 0 0 1 7.672 20.328 A 16.167 16.167 0 0 1 5.096 20.128 A 14.698 14.698 0 0 1 4.718 20.062 A 13.359 13.359 0 0 1 2.919 19.597 A 11.404 11.404 0 0 1 2.114 19.292 A 10.408 10.408 0 0 1 0.667 18.546 A 8.873 8.873 0 0 1 0 18.088 Z M 79.1 12.964 L 79.1 14 L 68.768 14 L 68.768 11.984 L 76.636 11.984 L 76.188 12.404 A 6.949 6.949 0 0 0 76.106 11.3 Q 75.926 10.181 75.348 9.478 Q 74.508 8.456 72.94 8.456 Q 71.764 8.456 70.938 9.002 A 3.357 3.357 0 0 0 69.823 10.242 A 4.145 4.145 0 0 0 69.678 10.542 Q 69.244 11.536 69.244 12.908 L 69.244 13.104 A 8.215 8.215 0 0 0 69.31 14.174 Q 69.421 15.018 69.72 15.652 Q 70.196 16.66 71.148 17.164 Q 72.011 17.621 73.241 17.664 A 7.437 7.437 0 0 0 73.5 17.668 Q 74.648 17.668 75.796 17.318 Q 76.944 16.968 77.896 16.212 L 78.876 18.564 A 6.384 6.384 0 0 1 77.653 19.352 A 8.731 8.731 0 0 1 76.412 19.852 Q 74.928 20.328 73.444 20.328 Q 71.12 20.328 69.44 19.46 Q 67.76 18.592 66.85 16.996 A 6.805 6.805 0 0 1 66.068 14.771 A 9.078 9.078 0 0 1 65.94 13.216 A 8.682 8.682 0 0 1 66.147 11.279 A 6.809 6.809 0 0 1 66.822 9.492 Q 67.704 7.896 69.258 6.986 A 6.666 6.666 0 0 1 72.07 6.108 A 8.19 8.19 0 0 1 72.8 6.076 A 7.665 7.665 0 0 1 74.408 6.237 A 5.699 5.699 0 0 1 76.16 6.916 A 5.64 5.64 0 0 1 78.306 9.248 A 6.74 6.74 0 0 1 78.33 9.296 Q 79.099 10.833 79.1 12.957 A 11.211 11.211 0 0 1 79.1 12.964 Z M 111.076 12.964 L 111.076 14 L 100.744 14 L 100.744 11.984 L 108.612 11.984 L 108.164 12.404 A 6.949 6.949 0 0 0 108.082 11.3 Q 107.902 10.181 107.324 9.478 Q 106.484 8.456 104.916 8.456 Q 103.74 8.456 102.914 9.002 A 3.357 3.357 0 0 0 101.799 10.242 A 4.145 4.145 0 0 0 101.654 10.542 Q 101.22 11.536 101.22 12.908 L 101.22 13.104 A 8.215 8.215 0 0 0 101.286 14.174 Q 101.397 15.018 101.696 15.652 Q 102.172 16.66 103.124 17.164 Q 103.987 17.621 105.217 17.664 A 7.437 7.437 0 0 0 105.476 17.668 Q 106.624 17.668 107.772 17.318 Q 108.92 16.968 109.872 16.212 L 110.852 18.564 A 6.384 6.384 0 0 1 109.629 19.352 A 8.731 8.731 0 0 1 108.388 19.852 Q 106.904 20.328 105.42 20.328 Q 103.096 20.328 101.416 19.46 Q 99.736 18.592 98.826 16.996 A 6.805 6.805 0 0 1 98.044 14.771 A 9.078 9.078 0 0 1 97.916 13.216 A 8.682 8.682 0 0 1 98.123 11.279 A 6.809 6.809 0 0 1 98.798 9.492 Q 99.68 7.896 101.234 6.986 A 6.666 6.666 0 0 1 104.046 6.108 A 8.19 8.19 0 0 1 104.776 6.076 A 7.665 7.665 0 0 1 106.384 6.237 A 5.699 5.699 0 0 1 108.136 6.916 A 5.64 5.64 0 0 1 110.282 9.248 A 6.74 6.74 0 0 1 110.306 9.296 Q 111.075 10.833 111.076 12.957 A 11.211 11.211 0 0 1 111.076 12.964 Z M 91.84 9.128 L 91.532 9.128 L 91.532 0.308 L 95.032 0.308 L 95.032 20.048 L 91.616 20.048 L 91.616 17.136 L 91.868 17.136 Q 91.448 18.592 90.16 19.46 A 5.082 5.082 0 0 1 87.823 20.292 A 6.442 6.442 0 0 1 87.136 20.328 A 6.263 6.263 0 0 1 85.354 20.083 A 5.332 5.332 0 0 1 83.986 19.46 A 5.593 5.593 0 0 1 82.15 17.514 A 6.942 6.942 0 0 1 81.872 16.982 Q 81.116 15.372 81.116 13.188 A 10.853 10.853 0 0 1 81.251 11.434 Q 81.435 10.309 81.872 9.394 Q 82.628 7.812 83.986 6.944 A 5.528 5.528 0 0 1 86.473 6.107 A 6.928 6.928 0 0 1 87.136 6.076 Q 88.844 6.076 90.118 6.916 A 4.347 4.347 0 0 1 91.315 8.065 A 4.066 4.066 0 0 1 91.84 9.128 Z M 53.396 25.088 L 49.896 25.088 L 49.896 6.356 L 53.312 6.356 L 53.312 9.24 L 53.032 9.24 A 4.079 4.079 0 0 1 54.734 6.958 A 5.135 5.135 0 0 1 54.754 6.944 A 5.177 5.177 0 0 1 57.182 6.104 A 6.51 6.51 0 0 1 57.792 6.076 A 6.263 6.263 0 0 1 59.574 6.321 A 5.332 5.332 0 0 1 60.942 6.944 A 5.679 5.679 0 0 1 62.858 9.01 A 6.943 6.943 0 0 1 63.056 9.394 Q 63.779 10.906 63.811 12.993 A 12.702 12.702 0 0 1 63.812 13.188 Q 63.812 15.372 63.056 16.982 A 6.338 6.338 0 0 1 62.087 18.483 A 5.398 5.398 0 0 1 60.956 19.46 A 5.412 5.412 0 0 1 58.672 20.274 A 6.953 6.953 0 0 1 57.792 20.328 A 5.777 5.777 0 0 1 56.096 20.087 A 4.965 4.965 0 0 1 54.796 19.474 A 4.465 4.465 0 0 1 53.639 18.386 A 4.054 4.054 0 0 1 53.06 17.248 L 53.396 17.248 L 53.396 25.088 Z M 21.7 20.048 L 18.2 20.048 L 18.2 6.356 L 21.7 6.356 L 21.7 20.048 Z M 56.812 17.668 A 3.509 3.509 0 0 0 58.025 17.466 A 3.062 3.062 0 0 0 59.332 16.534 A 3.625 3.625 0 0 0 59.983 15.335 Q 60.16 14.803 60.233 14.151 A 8.677 8.677 0 0 0 60.284 13.188 A 8.396 8.396 0 0 0 60.2 11.958 Q 60.107 11.331 59.91 10.826 A 3.37 3.37 0 0 0 59.332 9.842 A 3.114 3.114 0 0 0 57.053 8.743 A 4.25 4.25 0 0 0 56.812 8.736 A 3.595 3.595 0 0 0 55.609 8.929 A 3.06 3.06 0 0 0 54.292 9.842 A 3.457 3.457 0 0 0 53.658 10.977 Q 53.48 11.491 53.401 12.125 A 8.681 8.681 0 0 0 53.34 13.188 Q 53.34 14.625 53.742 15.607 A 3.476 3.476 0 0 0 54.292 16.534 A 3.082 3.082 0 0 0 56.547 17.66 A 4.127 4.127 0 0 0 56.812 17.668 Z M 88.116 17.668 A 3.509 3.509 0 0 0 89.329 17.466 A 3.062 3.062 0 0 0 90.636 16.534 A 3.625 3.625 0 0 0 91.287 15.335 Q 91.464 14.803 91.537 14.151 A 8.677 8.677 0 0 0 91.588 13.188 A 8.396 8.396 0 0 0 91.504 11.958 Q 91.411 11.331 91.214 10.826 A 3.37 3.37 0 0 0 90.636 9.842 A 3.114 3.114 0 0 0 88.357 8.743 A 4.25 4.25 0 0 0 88.116 8.736 A 3.595 3.595 0 0 0 86.913 8.929 A 3.06 3.06 0 0 0 85.596 9.842 A 3.457 3.457 0 0 0 84.962 10.977 Q 84.784 11.491 84.705 12.125 A 8.681 8.681 0 0 0 84.644 13.188 Q 84.644 14.625 85.046 15.607 A 3.476 3.476 0 0 0 85.596 16.534 A 3.082 3.082 0 0 0 87.851 17.66 A 4.127 4.127 0 0 0 88.116 17.668 Z M 21.896 3.416 L 17.976 3.416 L 17.976 0 L 21.896 0 L 21.896 3.416 Z" fill="currentColor"></path>
                        </g>
                    </svg>
