<svg width="148.463" height="64.575" viewBox="0 0 148.463 64.575" xmlns="http://www.w3.org/2000/svg"><g id="svgGroup" stroke-linecap="round" fill-rule="evenodd" font-size="9pt" stroke="#3BE0DA" stroke-width="0.25mm" fill="#3BE0DA" style="stroke:#3BE0DA;stroke-width:0.25mm;fill:#3BE0DA"><path d="M 24.9 27.675 L 21.15 28.5 A 988.057 988.057 0 0 1 17.348 29.303 Q 15.033 29.787 13.05 30.188 A 39.977 39.977 0 0 1 10.109 30.675 Q 8.311 30.9 6.75 30.9 Q 4.704 30.9 3.246 30.493 A 6.465 6.465 0 0 1 1.763 29.888 Q 0 28.875 0 26.4 A 7.037 7.037 0 0 1 0.063 25.493 Q 0.126 25.013 0.251 24.471 A 15.222 15.222 0 0 1 0.45 23.7 A 14.689 14.689 0 0 1 2.177 20.065 Q 4.161 16.966 7.953 13.651 A 50.882 50.882 0 0 1 8.475 13.2 A 56.992 56.992 0 0 1 17.023 7.241 A 63.951 63.951 0 0 1 18.375 6.488 A 63.606 63.606 0 0 1 28.565 2.045 A 58.57 58.57 0 0 1 29.438 1.763 Q 35.025 0 39.9 0 A 13.836 13.836 0 0 1 42.297 0.195 Q 43.618 0.428 44.681 0.938 A 7.141 7.141 0 0 1 45.863 1.65 A 5.231 5.231 0 0 1 48.039 5.446 A 6.799 6.799 0 0 1 48.075 6.15 A 8.528 8.528 0 0 1 47.635 8.781 Q 47.167 10.228 46.2 11.775 Q 45.695 12.496 45.329 12.524 A 0.385 0.385 0 0 1 45.3 12.525 Q 45.173 12.525 45.047 12.338 A 1.174 1.174 0 0 1 45 12.263 Q 44.85 12 44.85 11.7 A 0.5 0.5 0 0 1 44.852 11.656 Q 44.859 11.579 44.888 11.438 A 6.203 6.203 0 0 1 44.909 11.337 Q 44.944 11.175 45 10.95 Q 45.6 9.15 45.6 7.5 A 5.857 5.857 0 0 0 45.41 5.964 A 4.051 4.051 0 0 0 43.838 3.675 A 5.033 5.033 0 0 0 42.219 2.918 Q 40.781 2.518 38.775 2.7 A 35.988 35.988 0 0 0 33.811 3.596 Q 31.419 4.192 28.8 5.129 A 70.339 70.339 0 0 0 25.575 6.375 Q 20.55 8.475 16.088 11.325 A 50.259 50.259 0 0 0 11.529 14.591 A 39.451 39.451 0 0 0 8.438 17.363 Q 5.25 20.55 4.05 23.775 A 2.754 2.754 0 0 0 3.808 24.521 A 3.818 3.818 0 0 0 3.75 25.2 A 2.403 2.403 0 0 0 5.231 27.45 Q 6.383 28.033 8.429 28.163 A 19.724 19.724 0 0 0 9.675 28.2 A 31.692 31.692 0 0 0 12.862 28.031 A 42.51 42.51 0 0 0 15.938 27.6 A 267.266 267.266 0 0 0 18.65 27.108 Q 21.038 26.663 23.85 26.1 L 26.475 25.575 A 16.224 16.224 0 0 1 28.7 25.356 A 14.655 14.655 0 0 1 29.1 25.35 A 9.594 9.594 0 0 1 30.635 25.465 Q 31.439 25.596 32.096 25.875 A 4.748 4.748 0 0 1 32.925 26.325 A 3.341 3.341 0 0 1 33.874 27.281 Q 34.305 27.958 34.346 28.84 A 4.034 4.034 0 0 1 34.35 29.025 A 4.661 4.661 0 0 1 34.168 30.263 Q 33.864 31.363 33.053 32.689 A 15.559 15.559 0 0 1 33 32.775 Q 31.725 34.8 30 36.638 A 39.742 39.742 0 0 1 26.822 39.658 A 44.611 44.611 0 0 1 26.175 40.2 Q 21.9 43.65 17.025 45.675 Q 12.15 47.7 7.8 47.7 A 6.813 6.813 0 0 1 6.769 47.628 Q 6.228 47.544 5.794 47.366 A 2.842 2.842 0 0 1 4.988 46.875 Q 4.05 46.05 4.05 44.625 A 5.146 5.146 0 0 1 4.244 43.265 Q 4.405 42.677 4.7 42.053 A 9.551 9.551 0 0 1 4.875 41.7 A 9.902 9.902 0 0 1 6.329 39.641 A 12.168 12.168 0 0 1 7.2 38.775 A 4.072 4.072 0 0 1 7.438 38.59 Q 7.674 38.422 7.86 38.353 A 0.876 0.876 0 0 1 7.95 38.325 A 0.554 0.554 0 0 1 8.148 38.359 A 0.498 0.498 0 0 1 8.325 38.475 Q 8.4 38.55 8.4 38.775 A 1.026 1.026 0 0 1 8.313 39.172 Q 8.182 39.484 7.855 39.84 A 4.469 4.469 0 0 1 7.725 39.975 A 13.73 13.73 0 0 0 6.819 41.005 Q 5.97 42.082 5.725 42.965 A 2.561 2.561 0 0 0 5.625 43.65 A 1.796 1.796 0 0 0 5.98 44.714 A 2.711 2.711 0 0 0 6.375 45.15 A 2.387 2.387 0 0 0 7.12 45.615 Q 7.578 45.79 8.1 45.75 A 23.232 23.232 0 0 0 13.363 44.906 A 28.342 28.342 0 0 0 15.825 44.1 Q 19.8 42.6 23.25 39.938 Q 26.7 37.275 28.95 33.825 A 13.315 13.315 0 0 0 29.784 32.453 Q 30.6 30.891 30.6 29.625 A 2.534 2.534 0 0 0 30.401 28.581 Q 29.915 27.496 28.243 27.33 A 6.516 6.516 0 0 0 27.6 27.3 A 5.892 5.892 0 0 0 27.112 27.322 Q 26.863 27.343 26.587 27.383 A 10.304 10.304 0 0 0 26.4 27.413 Q 25.725 27.525 24.9 27.675 Z M 51.3 36 L 55.875 31.8 Q 56.449 31.283 56.936 30.899 A 14.053 14.053 0 0 1 57.225 30.675 Q 57.762 30.273 58.119 29.99 A 21.476 21.476 0 0 0 58.2 29.925 Q 58.95 29.4 59.625 29.4 A 1.237 1.237 0 0 1 60.064 29.489 Q 60.509 29.658 61.05 30.15 Q 61.381 30.481 61.42 31.805 A 12.629 12.629 0 0 1 61.425 32.175 L 61.425 34.05 A 4.27 4.27 0 0 1 61.41 34.411 A 3.548 3.548 0 0 1 61.388 34.613 A 3.715 3.715 0 0 0 61.355 34.956 A 4.474 4.474 0 0 0 61.35 35.175 A 6.093 6.093 0 0 0 61.399 35.965 Q 61.451 36.364 61.559 36.707 A 3.538 3.538 0 0 0 61.613 36.863 A 1.787 1.787 0 0 0 61.75 37.158 Q 61.998 37.575 62.4 37.575 A 0.384 0.384 0 0 0 62.543 37.544 Q 62.734 37.467 63 37.2 L 65.1 34.725 Q 67.725 31.65 69.15 30.225 A 7.777 7.777 0 0 1 71.234 28.717 A 7.143 7.143 0 0 1 72.375 28.275 Q 72.598 28.201 72.785 28.163 A 2.452 2.452 0 0 1 72.788 28.163 A 2.131 2.131 0 0 1 72.945 28.137 Q 73.041 28.125 73.125 28.125 Q 73.8 28.125 74.288 28.575 A 1.017 1.017 0 0 1 74.56 28.972 Q 74.657 29.237 74.6 29.567 A 1.801 1.801 0 0 1 74.55 29.775 A 37.026 37.026 0 0 1 74.252 30.89 Q 74.091 31.458 73.896 32.087 A 64.511 64.511 0 0 1 73.763 32.513 A 52.225 52.225 0 0 1 73.526 33.242 Q 73.181 34.275 72.9 34.95 A 13.753 13.753 0 0 0 72.475 35.879 Q 72.105 36.783 72.023 37.446 A 2.912 2.912 0 0 0 72 37.8 Q 72 38.475 72.563 38.7 A 4.751 4.751 0 0 0 73.543 38.978 A 4.363 4.363 0 0 0 73.688 39 Q 74.163 39.064 74.237 39.234 A 0.165 0.165 0 0 1 74.25 39.3 A 16.425 16.425 0 0 1 74.953 39.071 Q 75.645 38.863 76.128 38.801 A 2.959 2.959 0 0 1 76.5 38.775 A 1.742 1.742 0 0 1 76.664 38.782 Q 77.205 38.834 76.875 39.263 A 2.996 2.996 0 0 1 76.6 39.569 Q 76.211 39.951 75.525 40.425 A 11.6 11.6 0 0 1 73.532 41.526 A 12.854 12.854 0 0 1 73.388 41.588 A 7.535 7.535 0 0 1 72.561 41.882 Q 72.142 42.003 71.764 42.048 A 3.701 3.701 0 0 1 71.325 42.075 A 2.484 2.484 0 0 1 70.56 41.968 Q 69.754 41.707 69.533 40.813 A 3.192 3.192 0 0 1 69.45 40.05 A 6.471 6.471 0 0 1 69.579 38.737 A 5.596 5.596 0 0 1 69.75 38.1 A 85.403 85.403 0 0 0 70.107 36.761 Q 70.8 34.064 70.8 33.15 Q 70.8 32.459 70.573 32.192 A 0.466 0.466 0 0 0 70.2 32.025 Q 68.928 32.025 64.924 36.822 A 86.455 86.455 0 0 0 64.425 37.425 Q 63.975 37.95 63.413 38.55 A 18.315 18.315 0 0 1 62.506 39.45 A 21.076 21.076 0 0 1 62.175 39.75 Q 61.275 40.575 60.45 41.475 A 1.506 1.506 0 0 1 59.627 41.893 A 2.148 2.148 0 0 1 59.25 41.925 A 3.297 3.297 0 0 1 58.649 41.875 Q 57.643 41.688 57.525 40.8 Q 57.45 39.6 57.413 38.813 A 68.819 68.819 0 0 1 57.397 38.46 Q 57.375 37.953 57.375 37.725 A 261.347 261.347 0 0 0 57.309 36.881 Q 57.231 35.913 57.179 35.384 A 22.098 22.098 0 0 0 57.15 35.1 A 1.141 1.141 0 0 0 57.089 34.829 Q 56.958 34.476 56.587 34.432 A 0.941 0.941 0 0 0 56.475 34.425 Q 55.725 34.425 52.725 36.825 Q 48.675 40.05 45.3 44.025 A 11.67 11.67 0 0 1 44.709 44.551 Q 43.808 45.296 43.242 45.368 A 0.928 0.928 0 0 1 43.125 45.375 A 0.434 0.434 0 0 1 42.71 45.11 Q 42.6 44.887 42.6 44.475 Q 42.6 43.93 42.778 43.227 A 9.149 9.149 0 0 1 42.938 42.675 A 14.277 14.277 0 0 1 43.506 41.186 A 12.467 12.467 0 0 1 43.725 40.725 A 21.371 21.371 0 0 0 44.105 39.966 Q 44.671 38.783 45.541 36.723 A 174.774 174.774 0 0 0 45.75 36.225 A 296.584 296.584 0 0 1 46.505 34.549 Q 47.435 32.501 48.148 31.029 A 88.875 88.875 0 0 1 48.375 30.563 Q 49.425 28.425 50.4 27.3 Q 51.347 26.151 51.928 26.038 A 0.64 0.64 0 0 1 52.05 26.025 A 0.537 0.537 0 0 1 52.446 26.201 Q 52.56 26.318 52.65 26.513 A 2.455 2.455 0 0 1 52.861 27.307 A 2.992 2.992 0 0 1 52.875 27.6 A 3.73 3.73 0 0 1 52.868 27.837 Q 52.846 28.184 52.752 28.317 A 0.247 0.247 0 0 1 52.725 28.35 A 6.714 6.714 0 0 0 52.358 28.753 Q 52.009 29.164 51.569 29.777 A 31.844 31.844 0 0 0 51.15 30.375 Q 50.175 31.8 49.35 33.225 Q 47.775 36.15 47.775 37.575 Q 47.775 37.725 47.813 37.875 A 1.432 1.432 0 0 0 47.898 38.119 A 1.631 1.631 0 0 0 47.925 38.175 A 26.665 26.665 0 0 0 48.966 37.627 A 21.589 21.589 0 0 0 49.575 37.275 A 9.449 9.449 0 0 0 50.169 36.885 Q 50.479 36.666 50.82 36.395 A 20.406 20.406 0 0 0 51.3 36 Z M 65.175 64.425 A 0.946 0.946 0 0 0 65.338 64.487 Q 65.649 64.575 66.225 64.575 Q 66.863 64.575 67.098 64.486 A 0.292 0.292 0 0 0 67.2 64.425 Q 70.013 61.894 73.416 56.452 A 97.414 97.414 0 0 0 75.75 52.5 Q 76.8 50.7 77.775 48.788 Q 78.75 46.875 79.725 44.85 A 3.695 3.695 0 0 0 80.02 44.838 Q 80.874 44.769 82.238 44.325 A 30.485 30.485 0 0 0 83.468 43.895 A 37.048 37.048 0 0 0 85.613 43.013 A 37.441 37.441 0 0 0 86.266 42.713 A 33.155 33.155 0 0 0 88.913 41.325 A 22.608 22.608 0 0 0 89.845 40.751 Q 90.721 40.179 91.275 39.675 Q 93.6 37.575 95.588 34.913 A 41.168 41.168 0 0 0 97.19 32.612 A 32.121 32.121 0 0 0 98.85 29.738 Q 100.125 27.225 100.125 25.575 A 3.788 3.788 0 0 0 100.121 25.399 Q 100.095 24.84 99.9 24.45 A 2.392 2.392 0 0 0 99.187 23.648 Q 98.746 23.335 98.137 23.201 A 4.712 4.712 0 0 0 97.125 23.1 Q 95.4 23.1 93.525 23.813 Q 92.353 24.258 90.947 24.894 A 73.005 73.005 0 0 0 89.175 25.725 A 9.821 9.821 0 0 0 89.172 25.709 Q 89.098 25.345 89.025 25.125 L 88.95 24.9 Q 88.95 24.75 89.175 24.3 A 1.55 1.55 0 0 0 89.208 24.229 Q 89.253 24.127 89.309 23.97 A 8.667 8.667 0 0 0 89.363 23.813 A 5.421 5.421 0 0 0 89.397 23.706 A 6.03 6.03 0 0 0 89.55 23.1 A 1.391 1.391 0 0 0 89.618 22.939 Q 89.724 22.638 89.758 22.169 A 6.721 6.721 0 0 0 89.775 21.675 A 4.155 4.155 0 0 0 89.74 21.114 Q 89.634 20.339 89.205 20.049 A 1.099 1.099 0 0 0 88.575 19.875 Q 87.958 19.97 87.672 20.185 A 0.602 0.602 0 0 0 87.45 20.475 Q 85.8 25.125 84.488 28.313 Q 83.575 30.529 82.826 32.002 A 20.913 20.913 0 0 1 82.2 33.15 A 25.973 25.973 0 0 1 81.496 34.187 Q 80.243 35.948 77.925 38.775 Q 74.475 42.9 71.438 47.4 A 69.278 69.278 0 0 0 68.924 51.401 A 52.791 52.791 0 0 0 66.525 56.025 A 30.966 30.966 0 0 0 65.848 57.629 Q 65.267 59.126 64.934 60.494 A 15.19 15.19 0 0 0 64.5 63.375 A 0.466 0.466 0 0 0 64.501 63.405 Q 64.515 63.62 64.725 63.9 A 5.622 5.622 0 0 0 64.922 64.148 A 4.394 4.394 0 0 0 65.175 64.425 Z M 119.25 42 L 116.85 43.275 L 115.275 44.175 A 0.83 0.83 0 0 0 115.159 44.227 Q 114.883 44.372 114.225 44.85 A 3.097 3.097 0 0 1 113.121 45.263 A 2.94 2.94 0 0 1 112.65 45.3 A 2.209 2.209 0 0 1 111.854 45.14 Q 111.247 44.906 110.566 44.329 A 7.681 7.681 0 0 1 110.475 44.25 A 3.774 3.774 0 0 1 109.981 43.652 Q 109.712 43.239 109.621 42.812 A 2.098 2.098 0 0 1 109.575 42.375 A 2.364 2.364 0 0 1 109.644 41.842 Q 109.814 41.117 110.4 40.05 Q 110.942 39.169 112.157 37.922 A 28.685 28.685 0 0 1 112.425 37.65 A 23.503 23.503 0 0 0 112.849 37.216 Q 113.18 36.867 113.438 36.563 Q 113.85 36.075 114.15 35.775 A 19.844 19.844 0 0 1 117.567 32.287 Q 119.287 30.894 121.477 29.634 A 40.61 40.61 0 0 1 123.9 28.35 Q 125.275 27.635 126.449 27.445 A 5.153 5.153 0 0 1 127.275 27.375 A 3.23 3.23 0 0 1 128.653 27.662 Q 129.318 27.971 129.817 28.614 A 4.039 4.039 0 0 1 129.9 28.725 Q 130.35 27.825 131.363 26.138 Q 132.375 24.45 133.613 22.425 A 196.139 196.139 0 0 1 134.831 20.456 A 168.289 168.289 0 0 1 136.013 18.6 A 202.867 202.867 0 0 1 136.563 17.752 Q 137.1 16.93 137.507 16.328 A 53.509 53.509 0 0 1 137.85 15.825 Q 139.519 13.538 140.679 12.168 A 26.177 26.177 0 0 1 141.15 11.625 Q 142.256 10.454 143.193 10.299 A 1.724 1.724 0 0 1 143.475 10.275 A 1.013 1.013 0 0 1 143.731 10.312 Q 143.969 10.374 144.272 10.544 A 4.429 4.429 0 0 1 144.45 10.65 A 1.475 1.475 0 0 1 144.971 11.724 A 2.037 2.037 0 0 1 144.975 11.85 Q 144.975 12.975 144 14.475 Q 143.345 15.483 142.351 16.796 A 76.349 76.349 0 0 1 141.3 18.15 A 3.137 3.137 0 0 1 141.192 18.302 Q 141.056 18.481 140.85 18.713 A 7.474 7.474 0 0 0 140.615 18.992 Q 140.512 19.12 140.402 19.265 A 14.997 14.997 0 0 0 140.175 19.575 A 2433.022 2433.022 0 0 0 138.895 21.439 A 2778.489 2778.489 0 0 0 138.45 22.088 Q 137.55 23.4 136.5 24.675 Q 135 26.625 133.35 28.913 Q 131.7 31.2 130.275 33.675 Q 129 35.925 128.1 38.288 Q 127.2 40.65 126.6 43.05 A 46.176 46.176 0 0 0 126.565 43.301 Q 126.523 43.609 126.496 43.839 A 15.186 15.186 0 0 0 126.488 43.913 A 11.181 11.181 0 0 0 126.471 44.07 Q 126.45 44.288 126.45 44.4 L 126.525 45.525 Q 126.586 45.709 126.598 46.292 A 14.724 14.724 0 0 1 126.6 46.575 A 3.545 3.545 0 0 1 126.535 47.287 Q 126.311 48.378 125.31 48.508 A 2.213 2.213 0 0 1 125.025 48.525 A 1.739 1.739 0 0 1 124.196 48.332 Q 123.835 48.14 123.576 47.758 A 2.587 2.587 0 0 1 123.375 47.4 Q 123.311 47.337 123.302 47.057 A 3.109 3.109 0 0 1 123.3 46.95 A 1.578 1.578 0 0 1 123.318 46.742 Q 123.381 46.283 123.675 45.225 Q 123.825 44.85 123.938 44.475 Q 124.05 44.1 124.2 43.725 A 9.317 9.317 0 0 0 124.341 43.349 Q 124.41 43.15 124.48 42.927 A 15.402 15.402 0 0 0 124.5 42.863 Q 124.65 42.375 124.8 41.85 A 11.695 11.695 0 0 0 124.958 41.184 Q 125.029 40.837 125.065 40.535 A 4.827 4.827 0 0 0 125.1 39.975 A 2.445 2.445 0 0 0 125.076 39.618 Q 125.012 39.182 124.771 39.021 A 0.606 0.606 0 0 0 124.425 38.925 A 0.478 0.478 0 0 0 124.299 38.946 Q 124.1 39.002 123.749 39.21 A 7.262 7.262 0 0 0 123.6 39.3 Q 122.625 40.05 121.538 40.725 Q 120.45 41.4 119.25 42 Z M 100.176 43.457 A 5.092 5.092 0 0 0 101.85 43.725 A 6.655 6.655 0 0 0 102.606 43.681 Q 104.104 43.51 105.863 42.675 Q 108.075 41.625 109.913 40.2 A 21.845 21.845 0 0 0 109.988 40.141 Q 111.142 39.239 111.856 38.427 A 6.591 6.591 0 0 0 112.5 37.575 A 1.893 1.893 0 0 0 112.52 37.471 Q 112.614 36.9 112.2 36.9 A 0.206 0.206 0 0 0 112.133 36.916 Q 111.947 36.986 111.421 37.36 A 19.89 19.89 0 0 0 111.225 37.5 A 97.089 97.089 0 0 1 110.423 38.162 Q 109.179 39.176 108.375 39.75 A 18.965 18.965 0 0 1 107.821 40.132 Q 107.11 40.603 106.538 40.875 A 17.122 17.122 0 0 1 106.003 41.118 Q 105.716 41.243 105.388 41.375 A 36.534 36.534 0 0 1 104.55 41.7 A 2.896 2.896 0 0 1 104.337 41.785 Q 104.013 41.899 103.629 41.953 A 5.277 5.277 0 0 1 102.9 42 A 3.456 3.456 0 0 1 102.227 41.938 A 2.331 2.331 0 0 1 100.913 41.213 Q 100.2 40.425 100.2 39.375 Q 100.2 39.15 100.238 38.925 Q 100.275 38.7 100.35 38.475 Q 102.825 37.2 105.188 35.813 A 22.069 22.069 0 0 0 106.052 35.278 A 19.204 19.204 0 0 0 109.313 32.625 A 10.051 10.051 0 0 0 109.422 32.512 A 8.454 8.454 0 0 0 111.6 28.5 Q 111.822 27.447 111.162 26.68 A 2.96 2.96 0 0 0 110.588 26.175 Q 109.275 25.275 107.625 25.275 A 5.576 5.576 0 0 0 107.206 25.29 Q 106.222 25.365 105.6 25.8 A 30.813 30.813 0 0 0 104.812 26.343 Q 103.146 27.531 101.844 28.806 A 17.383 17.383 0 0 0 99.225 32.025 Q 97.125 35.4 97.125 38.4 Q 97.125 41.4 99.075 42.9 A 4.57 4.57 0 0 0 100.176 43.457 Z M 136.101 43.457 A 5.092 5.092 0 0 0 137.775 43.725 A 6.655 6.655 0 0 0 138.531 43.681 Q 140.029 43.51 141.788 42.675 Q 144 41.625 145.838 40.2 A 21.845 21.845 0 0 0 145.913 40.141 Q 147.067 39.239 147.781 38.427 A 6.591 6.591 0 0 0 148.425 37.575 A 1.893 1.893 0 0 0 148.445 37.471 Q 148.539 36.9 148.125 36.9 A 0.206 0.206 0 0 0 148.058 36.916 Q 147.872 36.986 147.346 37.36 A 19.89 19.89 0 0 0 147.15 37.5 A 97.089 97.089 0 0 1 146.348 38.162 Q 145.104 39.176 144.3 39.75 A 18.965 18.965 0 0 1 143.746 40.132 Q 143.035 40.603 142.463 40.875 A 17.122 17.122 0 0 1 141.928 41.118 Q 141.641 41.243 141.313 41.375 A 36.534 36.534 0 0 1 140.475 41.7 A 2.896 2.896 0 0 1 140.262 41.785 Q 139.938 41.899 139.554 41.953 A 5.277 5.277 0 0 1 138.825 42 A 3.456 3.456 0 0 1 138.152 41.938 A 2.331 2.331 0 0 1 136.838 41.213 Q 136.125 40.425 136.125 39.375 Q 136.125 39.15 136.163 38.925 Q 136.2 38.7 136.275 38.475 Q 138.75 37.2 141.113 35.813 A 22.069 22.069 0 0 0 141.977 35.278 A 19.204 19.204 0 0 0 145.238 32.625 A 10.051 10.051 0 0 0 145.347 32.512 A 8.454 8.454 0 0 0 147.525 28.5 Q 147.747 27.447 147.087 26.68 A 2.96 2.96 0 0 0 146.513 26.175 Q 145.2 25.275 143.55 25.275 A 5.576 5.576 0 0 0 143.131 25.29 Q 142.147 25.365 141.525 25.8 A 30.813 30.813 0 0 0 140.737 26.343 Q 139.071 27.531 137.769 28.806 A 17.383 17.383 0 0 0 135.15 32.025 Q 133.05 35.4 133.05 38.4 Q 133.05 41.4 135 42.9 A 4.57 4.57 0 0 0 136.101 43.457 Z M 82.65 38.775 L 81.3 41.625 Q 84.415 41.095 87.882 39.1 A 30.777 30.777 0 0 0 88.8 38.55 Q 92.775 36.075 95.4 32.625 Q 98.025 29.175 97.8 25.725 A 2.267 2.267 0 0 0 97.447 25.043 Q 96.927 24.375 95.925 24.375 Q 94.95 24.375 93.488 25.05 A 18.036 18.036 0 0 0 91.552 26.098 A 21.907 21.907 0 0 0 90.525 26.775 A 30.452 30.452 0 0 0 88.944 27.956 A 24.083 24.083 0 0 0 87.863 28.875 A 15.524 15.524 0 0 0 87.235 29.472 Q 86.662 30.052 86.348 30.522 A 3.726 3.726 0 0 0 86.25 30.675 Q 85.875 31.2 85.35 32.55 A 11.275 11.275 0 0 0 85.146 32.979 Q 84.994 33.319 84.9 33.6 Q 84.77 33.99 84.697 34.154 A 1.18 1.18 0 0 1 84.675 34.2 Q 84.3 35.175 83.775 36.338 A 159.449 159.449 0 0 1 83.231 37.528 A 185.12 185.12 0 0 1 82.65 38.775 Z M 67.178 60.401 A 0.114 0.114 0 0 0 67.275 60.45 A 0.47 0.47 0 0 0 67.48 60.39 Q 67.78 60.239 68.284 59.704 A 12.269 12.269 0 0 0 68.625 59.325 A 25.752 25.752 0 0 0 69.701 58.13 Q 70.194 57.544 70.578 57.002 A 12.002 12.002 0 0 0 71.025 56.325 Q 72.525 53.925 73.838 51.525 Q 75.15 49.125 76.35 46.725 A 57.553 57.553 0 0 0 77.081 45.262 Q 78.657 41.978 78.482 40.998 A 0.764 0.764 0 0 0 78.45 40.875 A 15.843 15.843 0 0 0 77.707 41.677 Q 76.902 42.602 75.927 43.945 A 52.62 52.62 0 0 0 75.788 44.138 Q 74.25 46.275 72.638 48.9 Q 71.025 51.525 69.638 54.113 A 49.797 49.797 0 0 0 68.687 55.974 Q 67.969 57.46 67.5 58.725 Q 67.194 59.765 67.138 60.056 A 0.579 0.579 0 0 0 67.125 60.15 Q 67.125 60.328 67.178 60.401 Z M 114.75 42.075 A 3.929 3.929 0 0 0 115.677 41.969 A 3.346 3.346 0 0 0 116.25 41.775 Q 119.1 40.8 121.65 39.3 Q 123.842 38.011 126.254 35.947 A 47.707 47.707 0 0 0 127.05 35.25 Q 127.425 34.2 127.95 33 A 182.323 182.323 0 0 0 128.494 31.744 A 233.76 233.76 0 0 0 129.075 30.375 A 4.283 4.283 0 0 0 128.504 29.469 A 2.569 2.569 0 0 0 126.45 28.5 Q 125.325 28.5 124.05 29.25 A 17.974 17.974 0 0 0 122.965 29.946 Q 122.394 30.339 121.774 30.82 A 34.625 34.625 0 0 0 121.2 31.275 A 39.311 39.311 0 0 0 119.12 33.067 A 46.473 46.473 0 0 0 118.163 33.975 Q 116.625 35.475 115.5 36.863 Q 114.487 38.113 114.021 38.967 A 5.844 5.844 0 0 0 113.925 39.15 A 3.161 3.161 0 0 0 113.497 40.459 A 3.931 3.931 0 0 0 113.475 40.875 Q 113.475 41.832 114.286 42.026 A 2.002 2.002 0 0 0 114.75 42.075 Z M 37.5 37.425 L 38.325 35.775 A 0.666 0.666 0 0 0 38.396 35.688 Q 38.51 35.527 38.67 35.175 A 9.634 9.634 0 0 0 38.738 35.025 A 12.884 12.884 0 0 1 38.927 34.614 Q 39.131 34.19 39.426 33.635 A 43.296 43.296 0 0 1 39.525 33.45 Q 40.05 32.4 40.35 31.575 A 11.771 11.771 0 0 0 40.66 30.598 A 9.57 9.57 0 0 0 40.8 30 Q 40.8 29.93 41.067 29.725 A 4.348 4.348 0 0 1 41.1 29.7 A 4.165 4.165 0 0 1 41.503 29.432 A 3.528 3.528 0 0 1 41.7 29.325 L 42.15 29.25 Q 42.75 29.25 43.163 29.475 Q 43.575 29.7 43.425 30.075 Q 43.064 30.849 42.774 31.48 A 156.483 156.483 0 0 0 42.525 32.025 A 31.856 31.856 0 0 0 42.265 32.612 Q 42.066 33.075 41.925 33.45 L 41.85 33.45 A 44.923 44.923 0 0 0 40.942 35.666 A 36.32 36.32 0 0 0 40.463 37.013 A 10.042 10.042 0 0 0 40.075 38.554 Q 39.966 39.215 39.966 39.845 A 7.119 7.119 0 0 0 39.975 40.2 L 40.05 42.225 A 2.426 2.426 0 0 1 39.856 42.978 A 2.138 2.138 0 0 1 39.525 43.5 A 8.376 8.376 0 0 1 39.316 43.652 Q 39.078 43.819 38.748 44.032 A 28.206 28.206 0 0 1 38.7 44.063 A 7.555 7.555 0 0 1 38.264 44.321 Q 38.028 44.452 37.75 44.587 A 16.122 16.122 0 0 1 37.35 44.775 Q 37.28 44.845 37.017 44.85 A 2.211 2.211 0 0 1 36.975 44.85 A 1.604 1.604 0 0 1 36.109 44.592 A 2.176 2.176 0 0 1 35.85 44.4 A 1.475 1.475 0 0 1 35.329 43.327 A 2.037 2.037 0 0 1 35.325 43.2 A 3.984 3.984 0 0 1 35.445 42.318 Q 35.835 40.641 37.5 37.425 Z M 100.8 36.45 A 1.169 1.169 0 0 0 101.124 36.393 Q 101.81 36.188 103.275 35.25 Q 105.15 34.05 106.8 32.625 A 22.257 22.257 0 0 0 107.893 31.553 Q 109.65 29.694 109.65 28.575 Q 109.65 28.2 109.425 27.9 Q 109.223 27.563 108.838 27.529 A 1.004 1.004 0 0 0 108.75 27.525 A 2.084 2.084 0 0 0 107.946 27.723 Q 106.508 28.343 103.95 30.9 A 11.396 11.396 0 0 0 100.801 36.447 A 14.217 14.217 0 0 0 100.8 36.45 Z M 136.725 36.45 A 1.169 1.169 0 0 0 137.049 36.393 Q 137.735 36.188 139.2 35.25 Q 141.075 34.05 142.725 32.625 A 22.257 22.257 0 0 0 143.818 31.553 Q 145.575 29.694 145.575 28.575 Q 145.575 28.2 145.35 27.9 Q 145.148 27.563 144.763 27.529 A 1.004 1.004 0 0 0 144.675 27.525 A 2.084 2.084 0 0 0 143.871 27.723 Q 142.433 28.343 139.875 30.9 A 11.396 11.396 0 0 0 136.726 36.447 A 14.217 14.217 0 0 0 136.725 36.45 Z M 42.675 26.025 A 0.339 0.339 0 0 0 42.851 26.326 Q 43.089 26.475 43.65 26.475 A 7.034 7.034 0 0 0 43.762 26.474 Q 44.149 26.468 44.494 26.419 A 4.18 4.18 0 0 0 45.225 26.25 A 2.157 2.157 0 0 0 45.415 26.163 Q 45.877 25.924 46.419 25.393 A 9.552 9.552 0 0 0 46.95 24.825 A 14.309 14.309 0 0 0 47.25 24.467 A 15.763 15.763 0 0 0 48.713 22.313 A 10.427 10.427 0 0 0 48.744 22.257 Q 49.223 21.401 49.398 20.704 A 3.096 3.096 0 0 0 49.5 19.95 Q 49.5 19.613 49.458 19.444 A 0.463 0.463 0 0 0 49.425 19.35 Q 48.075 21.15 47.138 21.9 A 13.929 13.929 0 0 1 47.096 21.934 Q 46.164 22.673 44.55 23.7 Q 43.8 24.225 43.238 24.938 A 7.141 7.141 0 0 0 43.229 24.948 Q 42.828 25.459 42.717 25.795 A 0.745 0.745 0 0 0 42.675 26.025 Z" vector-effect="non-scaling-stroke"/></g></svg>