<svg viewBox="0 0 204 37" xmlns="http://www.w3.org/2000/svg" class="text-gray-700 dark:text-white fill-current">
                        <defs>
                            <radialGradient cx="-4.619%" cy="6.646%" fx="-4.619%" fy="6.646%" r="101.342%" gradientTransform="matrix(.8299 .53351 -.5579 .79363 .03 .038)" id="a">
                                <stop stop-color="#00FFC4" offset="0%"></stop>
                                <stop stop-color="#00E1FF" offset="100%"></stop>
                            </radialGradient>
                        </defs>
                        <g fill-rule="nonzero" fill="none">
                            <path d="M30.343 9.99a14.757 14.757 0 0 1 .046 20.972 18.383 18.383 0 0 1-13.019 5.365A18.382 18.382 0 0 1 3.272 29.79c7.209 5.955 17.945 5.581 24.713-1.118a11.477 11.477 0 0 0 0-16.345c-4.56-4.514-11.953-4.514-16.513 0a4.918 4.918 0 0 0 0 7.006 5.04 5.04 0 0 0 7.077 0 1.68 1.68 0 0 1 2.359 0 1.639 1.639 0 0 1 0 2.333 8.4 8.4 0 0 1-11.794 0 8.198 8.198 0 0 1 0-11.674c5.861-5.805 15.366-5.805 21.229 0ZM17.37 0a18.38 18.38 0 0 1 14.097 6.538C24.257.583 13.52.958 6.756 7.653v.002a11.477 11.477 0 0 0 0 16.346c4.558 4.515 11.95 4.515 16.51 0a4.918 4.918 0 0 0 0-7.005 5.04 5.04 0 0 0-7.077 0 1.68 1.68 0 0 1-2.358 0 1.639 1.639 0 0 1 0-2.334 8.4 8.4 0 0 1 11.794 0 8.198 8.198 0 0 1 0 11.674c-5.862 5.805-15.367 5.805-21.23 0a14.756 14.756 0 0 1-.02-20.994A18.383 18.383 0 0 1 17.37 0Z" fill="url(#a)"></path>
                            <path transform="translate(50.000000, 7.000000)" d="M 28.896 20.048 L 25.396 20.048 L 25.396 6.356 L 28.812 6.356 L 28.812 9.1 L 28.504 9.1 A 5.025 5.025 0 0 1 29.102 7.971 A 4.438 4.438 0 0 1 29.512 7.476 Q 30.156 6.804 31.052 6.44 A 4.968 4.968 0 0 1 32.44 6.105 A 6.091 6.091 0 0 1 33.04 6.076 A 5.713 5.713 0 0 1 34.23 6.193 Q 35.022 6.362 35.632 6.772 A 3.57 3.57 0 0 1 35.756 6.86 Q 36.779 7.614 37.206 9.143 A 6.598 6.598 0 0 1 37.24 9.268 L 36.848 9.268 Q 37.408 7.784 38.696 6.93 A 5.145 5.145 0 0 1 41.25 6.089 A 6.336 6.336 0 0 1 41.664 6.076 Q 42.956 6.076 43.878 6.494 A 3.658 3.658 0 0 1 44.254 6.692 A 3.565 3.565 0 0 1 45.551 8.069 A 4.631 4.631 0 0 1 45.78 8.554 Q 46.284 9.8 46.284 11.704 L 46.284 20.048 L 42.784 20.048 L 42.784 11.844 Q 42.784 10.433 42.365 9.702 A 1.88 1.88 0 0 0 42.266 9.548 A 1.614 1.614 0 0 0 41.429 8.95 Q 41.036 8.82 40.516 8.82 Q 39.62 8.82 38.948 9.254 A 2.635 2.635 0 0 0 38.056 10.232 A 3.302 3.302 0 0 0 37.926 10.5 A 4.038 4.038 0 0 0 37.669 11.365 Q 37.593 11.774 37.579 12.241 A 7.218 7.218 0 0 0 37.576 12.46 L 37.576 20.048 L 34.076 20.048 L 34.076 11.844 Q 34.076 10.433 33.657 9.702 A 1.88 1.88 0 0 0 33.558 9.548 A 1.627 1.627 0 0 0 32.687 8.936 Q 32.316 8.82 31.836 8.82 A 3.286 3.286 0 0 0 31.053 8.909 A 2.533 2.533 0 0 0 30.254 9.254 A 2.635 2.635 0 0 0 29.414 10.163 A 3.339 3.339 0 0 0 29.246 10.5 A 4.038 4.038 0 0 0 28.989 11.365 Q 28.913 11.774 28.899 12.241 A 7.218 7.218 0 0 0 28.896 12.46 L 28.896 20.048 Z M 0 18.088 L 1.092 15.26 Q 2.016 15.904 3.038 16.366 Q 4.06 16.828 5.222 17.066 A 11.905 11.905 0 0 0 7.193 17.296 A 13.568 13.568 0 0 0 7.672 17.304 A 10.488 10.488 0 0 0 8.792 17.249 Q 10.16 17.101 10.892 16.562 A 2.64 2.64 0 0 0 11.523 15.92 A 2.222 2.222 0 0 0 11.9 14.644 A 2.253 2.253 0 0 0 11.835 14.089 A 1.768 1.768 0 0 0 11.592 13.538 A 1.84 1.84 0 0 0 11.247 13.158 Q 11.07 13.008 10.84 12.875 A 3.807 3.807 0 0 0 10.584 12.74 Q 9.884 12.404 8.736 12.18 L 5.656 11.536 A 11.559 11.559 0 0 1 4.057 11.086 Q 3.266 10.796 2.649 10.407 A 5.204 5.204 0 0 1 1.694 9.646 A 4.481 4.481 0 0 1 0.479 7.201 A 6.344 6.344 0 0 1 0.392 6.132 A 5.864 5.864 0 0 1 0.668 4.306 A 5.104 5.104 0 0 1 1.372 2.912 A 6.103 6.103 0 0 1 3.34 1.158 A 7.665 7.665 0 0 1 4.088 0.784 A 8.913 8.913 0 0 1 6.337 0.153 A 11.854 11.854 0 0 1 8.092 0.028 Q 9.436 0.028 10.682 0.294 A 10.101 10.101 0 0 1 12.441 0.835 A 8.966 8.966 0 0 1 12.978 1.078 A 7.943 7.943 0 0 1 14.348 1.93 A 7.001 7.001 0 0 1 14.812 2.324 L 13.72 5.012 Q 12.544 4.032 11.144 3.542 A 8.737 8.737 0 0 0 9.087 3.1 A 10.683 10.683 0 0 0 8.064 3.052 Q 6.776 3.052 5.852 3.416 A 3.802 3.802 0 0 0 5.138 3.783 A 2.783 2.783 0 0 0 4.438 4.438 A 2.476 2.476 0 0 0 3.956 5.772 A 3.123 3.123 0 0 0 3.948 5.992 Q 3.948 7 4.62 7.602 Q 5.219 8.138 6.573 8.464 A 11.114 11.114 0 0 0 6.916 8.54 L 9.968 9.184 Q 11.787 9.57 12.997 10.245 A 5.673 5.673 0 0 1 14.098 11.032 A 4.178 4.178 0 0 1 15.412 13.664 A 5.855 5.855 0 0 1 15.456 14.392 A 5.533 5.533 0 0 1 15.129 16.315 A 5.066 5.066 0 0 1 14.504 17.5 Q 13.552 18.844 11.802 19.586 Q 10.104 20.306 7.812 20.327 A 15.088 15.088 0 0 1 7.672 20.328 A 16.167 16.167 0 0 1 5.096 20.128 A 14.698 14.698 0 0 1 4.718 20.062 A 13.359 13.359 0 0 1 2.919 19.597 A 11.404 11.404 0 0 1 2.114 19.292 A 10.408 10.408 0 0 1 0.667 18.546 A 8.873 8.873 0 0 1 0 18.088 Z M 79.1 12.964 L 79.1 14 L 68.768 14 L 68.768 11.984 L 76.636 11.984 L 76.188 12.404 A 6.949 6.949 0 0 0 76.106 11.3 Q 75.926 10.181 75.348 9.478 Q 74.508 8.456 72.94 8.456 Q 71.764 8.456 70.938 9.002 A 3.357 3.357 0 0 0 69.823 10.242 A 4.145 4.145 0 0 0 69.678 10.542 Q 69.244 11.536 69.244 12.908 L 69.244 13.104 A 8.215 8.215 0 0 0 69.31 14.174 Q 69.421 15.018 69.72 15.652 Q 70.196 16.66 71.148 17.164 Q 72.011 17.621 73.241 17.664 A 7.437 7.437 0 0 0 73.5 17.668 Q 74.648 17.668 75.796 17.318 Q 76.944 16.968 77.896 16.212 L 78.876 18.564 A 6.384 6.384 0 0 1 77.653 19.352 A 8.731 8.731 0 0 1 76.412 19.852 Q 74.928 20.328 73.444 20.328 Q 71.12 20.328 69.44 19.46 Q 67.76 18.592 66.85 16.996 A 6.805 6.805 0 0 1 66.068 14.771 A 9.078 9.078 0 0 1 65.94 13.216 A 8.682 8.682 0 0 1 66.147 11.279 A 6.809 6.809 0 0 1 66.822 9.492 Q 67.704 7.896 69.258 6.986 A 6.666 6.666 0 0 1 72.07 6.108 A 8.19 8.19 0 0 1 72.8 6.076 A 7.665 7.665 0 0 1 74.408 6.237 A 5.699 5.699 0 0 1 76.16 6.916 A 5.64 5.64 0 0 1 78.306 9.248 A 6.74 6.74 0 0 1 78.33 9.296 Q 79.099 10.833 79.1 12.957 A 11.211 11.211 0 0 1 79.1 12.964 Z M 111.076 12.964 L 111.076 14 L 100.744 14 L 100.744 11.984 L 108.612 11.984 L 108.164 12.404 A 6.949 6.949 0 0 0 108.082 11.3 Q 107.902 10.181 107.324 9.478 Q 106.484 8.456 104.916 8.456 Q 103.74 8.456 102.914 9.002 A 3.357 3.357 0 0 0 101.799 10.242 A 4.145 4.145 0 0 0 101.654 10.542 Q 101.22 11.536 101.22 12.908 L 101.22 13.104 A 8.215 8.215 0 0 0 101.286 14.174 Q 101.397 15.018 101.696 15.652 Q 102.172 16.66 103.124 17.164 Q 103.987 17.621 105.217 17.664 A 7.437 7.437 0 0 0 105.476 17.668 Q 106.624 17.668 107.772 17.318 Q 108.92 16.968 109.872 16.212 L 110.852 18.564 A 6.384 6.384 0 0 1 109.629 19.352 A 8.731 8.731 0 0 1 108.388 19.852 Q 106.904 20.328 105.42 20.328 Q 103.096 20.328 101.416 19.46 Q 99.736 18.592 98.826 16.996 A 6.805 6.805 0 0 1 98.044 14.771 A 9.078 9.078 0 0 1 97.916 13.216 A 8.682 8.682 0 0 1 98.123 11.279 A 6.809 6.809 0 0 1 98.798 9.492 Q 99.68 7.896 101.234 6.986 A 6.666 6.666 0 0 1 104.046 6.108 A 8.19 8.19 0 0 1 104.776 6.076 A 7.665 7.665 0 0 1 106.384 6.237 A 5.699 5.699 0 0 1 108.136 6.916 A 5.64 5.64 0 0 1 110.282 9.248 A 6.74 6.74 0 0 1 110.306 9.296 Q 111.075 10.833 111.076 12.957 A 11.211 11.211 0 0 1 111.076 12.964 Z M 91.84 9.128 L 91.532 9.128 L 91.532 0.308 L 95.032 0.308 L 95.032 20.048 L 91.616 20.048 L 91.616 17.136 L 91.868 17.136 Q 91.448 18.592 90.16 19.46 A 5.082 5.082 0 0 1 87.823 20.292 A 6.442 6.442 0 0 1 87.136 20.328 A 6.263 6.263 0 0 1 85.354 20.083 A 5.332 5.332 0 0 1 83.986 19.46 A 5.593 5.593 0 0 1 82.15 17.514 A 6.942 6.942 0 0 1 81.872 16.982 Q 81.116 15.372 81.116 13.188 A 10.853 10.853 0 0 1 81.251 11.434 Q 81.435 10.309 81.872 9.394 Q 82.628 7.812 83.986 6.944 A 5.528 5.528 0 0 1 86.473 6.107 A 6.928 6.928 0 0 1 87.136 6.076 Q 88.844 6.076 90.118 6.916 A 4.347 4.347 0 0 1 91.315 8.065 A 4.066 4.066 0 0 1 91.84 9.128 Z M 53.396 25.088 L 49.896 25.088 L 49.896 6.356 L 53.312 6.356 L 53.312 9.24 L 53.032 9.24 A 4.079 4.079 0 0 1 54.734 6.958 A 5.135 5.135 0 0 1 54.754 6.944 A 5.177 5.177 0 0 1 57.182 6.104 A 6.51 6.51 0 0 1 57.792 6.076 A 6.263 6.263 0 0 1 59.574 6.321 A 5.332 5.332 0 0 1 60.942 6.944 A 5.679 5.679 0 0 1 62.858 9.01 A 6.943 6.943 0 0 1 63.056 9.394 Q 63.779 10.906 63.811 12.993 A 12.702 12.702 0 0 1 63.812 13.188 Q 63.812 15.372 63.056 16.982 A 6.338 6.338 0 0 1 62.087 18.483 A 5.398 5.398 0 0 1 60.956 19.46 A 5.412 5.412 0 0 1 58.672 20.274 A 6.953 6.953 0 0 1 57.792 20.328 A 5.777 5.777 0 0 1 56.096 20.087 A 4.965 4.965 0 0 1 54.796 19.474 A 4.465 4.465 0 0 1 53.639 18.386 A 4.054 4.054 0 0 1 53.06 17.248 L 53.396 17.248 L 53.396 25.088 Z M 21.7 20.048 L 18.2 20.048 L 18.2 6.356 L 21.7 6.356 L 21.7 20.048 Z M 56.812 17.668 A 3.509 3.509 0 0 0 58.025 17.466 A 3.062 3.062 0 0 0 59.332 16.534 A 3.625 3.625 0 0 0 59.983 15.335 Q 60.16 14.803 60.233 14.151 A 8.677 8.677 0 0 0 60.284 13.188 A 8.396 8.396 0 0 0 60.2 11.958 Q 60.107 11.331 59.91 10.826 A 3.37 3.37 0 0 0 59.332 9.842 A 3.114 3.114 0 0 0 57.053 8.743 A 4.25 4.25 0 0 0 56.812 8.736 A 3.595 3.595 0 0 0 55.609 8.929 A 3.06 3.06 0 0 0 54.292 9.842 A 3.457 3.457 0 0 0 53.658 10.977 Q 53.48 11.491 53.401 12.125 A 8.681 8.681 0 0 0 53.34 13.188 Q 53.34 14.625 53.742 15.607 A 3.476 3.476 0 0 0 54.292 16.534 A 3.082 3.082 0 0 0 56.547 17.66 A 4.127 4.127 0 0 0 56.812 17.668 Z M 88.116 17.668 A 3.509 3.509 0 0 0 89.329 17.466 A 3.062 3.062 0 0 0 90.636 16.534 A 3.625 3.625 0 0 0 91.287 15.335 Q 91.464 14.803 91.537 14.151 A 8.677 8.677 0 0 0 91.588 13.188 A 8.396 8.396 0 0 0 91.504 11.958 Q 91.411 11.331 91.214 10.826 A 3.37 3.37 0 0 0 90.636 9.842 A 3.114 3.114 0 0 0 88.357 8.743 A 4.25 4.25 0 0 0 88.116 8.736 A 3.595 3.595 0 0 0 86.913 8.929 A 3.06 3.06 0 0 0 85.596 9.842 A 3.457 3.457 0 0 0 84.962 10.977 Q 84.784 11.491 84.705 12.125 A 8.681 8.681 0 0 0 84.644 13.188 Q 84.644 14.625 85.046 15.607 A 3.476 3.476 0 0 0 85.596 16.534 A 3.082 3.082 0 0 0 87.851 17.66 A 4.127 4.127 0 0 0 88.116 17.668 Z M 21.896 3.416 L 17.976 3.416 L 17.976 0 L 21.896 0 L 21.896 3.416 Z" fill="currentColor"></path>
                        </g>
                    </svg>
